<svg xmlns="http://www.w3.org/2000/svg" width="720" height="720" viewBox="0 0 720 720" role="img" aria-label="QR code Bitcoin bc1qepkwkrsdjrvgxtlhekhmzktmp3vsa6rp2hqxg4"><title>Don Bitcoin : bc1qepkwkrsdjrvgxtlhekhmzktmp3vsa6rp2hqxg4</title><rect x="192.5" y="64.5" width="15" height="15" rx="3.68" fill="#111313"/><rect x="224.5" y="64.5" width="15" height="15" rx="3.68" fill="#111313"/><rect x="240.5" y="64.5" width="15" height="15" rx="3.68" fill="#111313"/><rect x="272.5" y="64.5" width="15" height="15" rx="3.68" fill="#111313"/><rect x="336.5" y="64.5" width="15" height="15" rx="3.68" fill="#111313"/><rect x="448.5" y="64.5" width="15" height="15" rx="3.68" fill="#111313"/><rect x="464.5" y="64.5" width="15" height="15" rx="3.68" fill="#111313"/><rect x="480.5" y="64.5" width="15" height="15" rx="3.68" fill="#111313"/><rect x="208.5" y="80.5" width="15" height="15" rx="3.68" fill="#111313"/><rect x="240.5" y="80.5" width="15" height="15" rx="3.68" fill="#111313"/><rect x="288.5" y="80.5" width="15" height="15" rx="3.68" fill="#111313"/><rect x="304.5" y="80.5" width="15" height="15" rx="3.68" fill="#111313"/><rect x="336.5" y="80.5" width="15" height="15" rx="3.68" fill="#111313"/><rect x="368.5" y="80.5" width="15" height="15" rx="3.68" fill="#111313"/><rect x="400.5" y="80.5" width="15" height="15" rx="3.68" fill="#111313"/><rect x="432.5" y="80.5" width="15" height="15" rx="3.68" fill="#111313"/><rect x="448.5" y="80.5" width="15" height="15" rx="3.68" fill="#111313"/><rect x="192.5" y="96.5" width="15" height="15" rx="3.68" fill="#111313"/><rect x="208.5" y="96.5" width="15" height="15" rx="3.68" fill="#111313"/><rect x="240.5" y="96.5" width="15" height="15" rx="3.68" fill="#111313"/><rect x="256.5" y="96.5" width="15" height="15" rx="3.68" fill="#111313"/><rect x="304.5" y="96.5" width="15" height="15" rx="3.68" fill="#111313"/><rect x="336.5" y="96.5" width="15" height="15" rx="3.68" fill="#111313"/><rect x="368.5" y="96.5" width="15" height="15" rx="3.68" fill="#111313"/><rect x="400.5" y="96.5" width="15" height="15" rx="3.68" fill="#111313"/><rect x="496.5" y="96.5" width="15" height="15" rx="3.68" fill="#111313"/><rect x="512.5" y="96.5" width="15" height="15" rx="3.68" fill="#111313"/><rect x="208.5" y="112.5" width="15" height="15" rx="3.68" fill="#111313"/><rect x="224.5" y="112.5" width="15" height="15" rx="3.68" fill="#111313"/><rect x="256.5" y="112.5" width="15" height="15" rx="3.68" fill="#111313"/><rect x="320.5" y="112.5" width="15" height="15" rx="3.68" fill="#111313"/><rect x="336.5" y="112.5" width="15" height="15" rx="3.68" fill="#111313"/><rect x="384.5" y="112.5" width="15" height="15" rx="3.68" fill="#111313"/><rect x="400.5" y="112.5" width="15" height="15" rx="3.68" fill="#111313"/><rect x="432.5" y="112.5" width="15" height="15" rx="3.68" fill="#111313"/><rect x="448.5" y="112.5" width="15" height="15" rx="3.68" fill="#111313"/><rect x="464.5" y="112.5" width="15" height="15" rx="3.68" fill="#111313"/><rect x="480.5" y="112.5" width="15" height="15" rx="3.68" fill="#111313"/><rect x="192.5" y="128.5" width="15" height="15" rx="3.68" fill="#111313"/><rect x="272.5" y="128.5" width="15" height="15" rx="3.68" fill="#111313"/><rect x="288.5" y="128.5" width="15" height="15" rx="3.68" fill="#111313"/><rect x="320.5" y="128.5" width="15" height="15" rx="3.68" fill="#111313"/><rect x="336.5" y="128.5" width="15" height="15" rx="3.68" fill="#111313"/><rect x="352.5" y="128.5" width="15" height="15" rx="3.68" fill="#111313"/><rect x="368.5" y="128.5" width="15" height="15" rx="3.68" fill="#111313"/><rect x="416.5" y="128.5" width="15" height="15" rx="3.68" fill="#111313"/><rect x="432.5" y="128.5" width="15" height="15" rx="3.68" fill="#111313"/><rect x="480.5" y="128.5" width="15" height="15" rx="3.68" fill="#111313"/><rect x="512.5" y="128.5" width="15" height="15" rx="3.68" fill="#111313"/><rect x="224.5" y="144.5" width="15" height="15" rx="3.68" fill="#111313"/><rect x="240.5" y="144.5" width="15" height="15" rx="3.68" fill="#111313"/><rect x="256.5" y="144.5" width="15" height="15" rx="3.68" fill="#111313"/><rect x="272.5" y="144.5" width="15" height="15" rx="3.68" fill="#111313"/><rect x="320.5" y="144.5" width="15" height="15" rx="3.68" fill="#111313"/><rect x="400.5" y="144.5" width="15" height="15" rx="3.68" fill="#111313"/><rect x="416.5" y="144.5" width="15" height="15" rx="3.68" fill="#111313"/><rect x="432.5" y="144.5" width="15" height="15" rx="3.68" fill="#111313"/><rect x="464.5" y="144.5" width="15" height="15" rx="3.68" fill="#111313"/><rect x="480.5" y="144.5" width="15" height="15" rx="3.68" fill="#111313"/><rect x="512.5" y="144.5" width="15" height="15" rx="3.68" fill="#111313"/><rect x="192.5" y="160.5" width="15" height="15" rx="3.68" fill="#111313"/><rect x="224.5" y="160.5" width="15" height="15" rx="3.68" fill="#111313"/><rect x="256.5" y="160.5" width="15" height="15" rx="3.68" fill="#111313"/><rect x="288.5" y="160.5" width="15" height="15" rx="3.68" fill="#111313"/><rect x="320.5" y="160.5" width="15" height="15" rx="3.68" fill="#111313"/><rect x="352.5" y="160.5" width="15" height="15" rx="3.68" fill="#111313"/><rect x="384.5" y="160.5" width="15" height="15" rx="3.68" fill="#111313"/><rect x="416.5" y="160.5" width="15" height="15" rx="3.68" fill="#111313"/><rect x="448.5" y="160.5" width="15" height="15" rx="3.68" fill="#111313"/><rect x="480.5" y="160.5" width="15" height="15" rx="3.68" fill="#111313"/><rect x="512.5" y="160.5" width="15" height="15" rx="3.68" fill="#111313"/><rect x="192.5" y="176.5" width="15" height="15" rx="3.68" fill="#111313"/><rect x="208.5" y="176.5" width="15" height="15" rx="3.68" fill="#111313"/><rect x="224.5" y="176.5" width="15" height="15" rx="3.68" fill="#111313"/><rect x="304.5" y="176.5" width="15" height="15" rx="3.68" fill="#111313"/><rect x="352.5" y="176.5" width="15" height="15" rx="3.68" fill="#111313"/><rect x="384.5" y="176.5" width="15" height="15" rx="3.68" fill="#111313"/><rect x="416.5" y="176.5" width="15" height="15" rx="3.68" fill="#111313"/><rect x="480.5" y="176.5" width="15" height="15" rx="3.68" fill="#111313"/><rect x="496.5" y="176.5" width="15" height="15" rx="3.68" fill="#111313"/><rect x="144.5" y="192.5" width="15" height="15" rx="3.68" fill="#111313"/><rect x="160.5" y="192.5" width="15" height="15" rx="3.68" fill="#111313"/><rect x="208.5" y="192.5" width="15" height="15" rx="3.68" fill="#111313"/><rect x="224.5" y="192.5" width="15" height="15" rx="3.68" fill="#111313"/><rect x="256.5" y="192.5" width="15" height="15" rx="3.68" fill="#111313"/><rect x="272.5" y="192.5" width="15" height="15" rx="3.68" fill="#111313"/><rect x="304.5" y="192.5" width="15" height="15" rx="3.68" fill="#111313"/><rect x="320.5" y="192.5" width="15" height="15" rx="3.68" fill="#111313"/><rect x="336.5" y="192.5" width="15" height="15" rx="3.68" fill="#111313"/><rect x="368.5" y="192.5" width="15" height="15" rx="3.68" fill="#111313"/><rect x="384.5" y="192.5" width="15" height="15" rx="3.68" fill="#111313"/><rect x="400.5" y="192.5" width="15" height="15" rx="3.68" fill="#111313"/><rect x="464.5" y="192.5" width="15" height="15" rx="3.68" fill="#111313"/><rect x="544.5" y="192.5" width="15" height="15" rx="3.68" fill="#111313"/><rect x="576.5" y="192.5" width="15" height="15" rx="3.68" fill="#111313"/><rect x="608.5" y="192.5" width="15" height="15" rx="3.68" fill="#111313"/><rect x="640.5" y="192.5" width="15" height="15" rx="3.68" fill="#111313"/><rect x="64.5" y="208.5" width="15" height="15" rx="3.68" fill="#111313"/><rect x="80.5" y="208.5" width="15" height="15" rx="3.68" fill="#111313"/><rect x="96.5" y="208.5" width="15" height="15" rx="3.68" fill="#111313"/><rect x="128.5" y="208.5" width="15" height="15" rx="3.68" fill="#111313"/><rect x="144.5" y="208.5" width="15" height="15" rx="3.68" fill="#111313"/><rect x="176.5" y="208.5" width="15" height="15" rx="3.68" fill="#111313"/><rect x="224.5" y="208.5" width="15" height="15" rx="3.68" fill="#111313"/><rect x="240.5" y="208.5" width="15" height="15" rx="3.68" fill="#111313"/><rect x="272.5" y="208.5" width="15" height="15" rx="3.68" fill="#111313"/><rect x="288.5" y="208.5" width="15" height="15" rx="3.68" fill="#111313"/><rect x="320.5" y="208.5" width="15" height="15" rx="3.68" fill="#111313"/><rect x="352.5" y="208.5" width="15" height="15" rx="3.68" fill="#111313"/><rect x="416.5" y="208.5" width="15" height="15" rx="3.68" fill="#111313"/><rect x="432.5" y="208.5" width="15" height="15" rx="3.68" fill="#111313"/><rect x="496.5" y="208.5" width="15" height="15" rx="3.68" fill="#111313"/><rect x="560.5" y="208.5" width="15" height="15" rx="3.68" fill="#111313"/><rect x="576.5" y="208.5" width="15" height="15" rx="3.68" fill="#111313"/><rect x="592.5" y="208.5" width="15" height="15" rx="3.68" fill="#111313"/><rect x="608.5" y="208.5" width="15" height="15" rx="3.68" fill="#111313"/><rect x="80.5" y="224.5" width="15" height="15" rx="3.68" fill="#111313"/><rect x="128.5" y="224.5" width="15" height="15" rx="3.68" fill="#111313"/><rect x="160.5" y="224.5" width="15" height="15" rx="3.68" fill="#111313"/><rect x="176.5" y="224.5" width="15" height="15" rx="3.68" fill="#111313"/><rect x="208.5" y="224.5" width="15" height="15" rx="3.68" fill="#111313"/><rect x="256.5" y="224.5" width="15" height="15" rx="3.68" fill="#111313"/><rect x="320.5" y="224.5" width="15" height="15" rx="3.68" fill="#111313"/><rect x="368.5" y="224.5" width="15" height="15" rx="3.68" fill="#111313"/><rect x="416.5" y="224.5" width="15" height="15" rx="3.68" fill="#111313"/><rect x="464.5" y="224.5" width="15" height="15" rx="3.68" fill="#111313"/><rect x="480.5" y="224.5" width="15" height="15" rx="3.68" fill="#111313"/><rect x="496.5" y="224.5" width="15" height="15" rx="3.68" fill="#111313"/><rect x="544.5" y="224.5" width="15" height="15" rx="3.68" fill="#111313"/><rect x="576.5" y="224.5" width="15" height="15" rx="3.68" fill="#111313"/><rect x="592.5" y="224.5" width="15" height="15" rx="3.68" fill="#111313"/><rect x="608.5" y="224.5" width="15" height="15" rx="3.68" fill="#111313"/><rect x="624.5" y="224.5" width="15" height="15" rx="3.68" fill="#111313"/><rect x="640.5" y="224.5" width="15" height="15" rx="3.68" fill="#111313"/><rect x="64.5" y="240.5" width="15" height="15" rx="3.68" fill="#111313"/><rect x="80.5" y="240.5" width="15" height="15" rx="3.68" fill="#111313"/><rect x="128.5" y="240.5" width="15" height="15" rx="3.68" fill="#111313"/><rect x="176.5" y="240.5" width="15" height="15" rx="3.68" fill="#111313"/><rect x="192.5" y="240.5" width="15" height="15" rx="3.68" fill="#111313"/><rect x="208.5" y="240.5" width="15" height="15" rx="3.68" fill="#111313"/><rect x="224.5" y="240.5" width="15" height="15" rx="3.68" fill="#111313"/><rect x="240.5" y="240.5" width="15" height="15" rx="3.68" fill="#111313"/><rect x="256.5" y="240.5" width="15" height="15" rx="3.68" fill="#111313"/><rect x="272.5" y="240.5" width="15" height="15" rx="3.68" fill="#111313"/><rect x="288.5" y="240.5" width="15" height="15" rx="3.68" fill="#111313"/><rect x="320.5" y="240.5" width="15" height="15" rx="3.68" fill="#111313"/><rect x="368.5" y="240.5" width="15" height="15" rx="3.68" fill="#111313"/><rect x="432.5" y="240.5" width="15" height="15" rx="3.68" fill="#111313"/><rect x="448.5" y="240.5" width="15" height="15" rx="3.68" fill="#111313"/><rect x="480.5" y="240.5" width="15" height="15" rx="3.68" fill="#111313"/><rect x="528.5" y="240.5" width="15" height="15" rx="3.68" fill="#111313"/><rect x="544.5" y="240.5" width="15" height="15" rx="3.68" fill="#111313"/><rect x="592.5" y="240.5" width="15" height="15" rx="3.68" fill="#111313"/><rect x="624.5" y="240.5" width="15" height="15" rx="3.68" fill="#111313"/><rect x="112.5" y="256.5" width="15" height="15" rx="3.68" fill="#111313"/><rect x="144.5" y="256.5" width="15" height="15" rx="3.68" fill="#111313"/><rect x="160.5" y="256.5" width="15" height="15" rx="3.68" fill="#111313"/><rect x="224.5" y="256.5" width="15" height="15" rx="3.68" fill="#111313"/><rect x="240.5" y="256.5" width="15" height="15" rx="3.68" fill="#111313"/><rect x="272.5" y="256.5" width="15" height="15" rx="3.68" fill="#111313"/><rect x="320.5" y="256.5" width="15" height="15" rx="3.68" fill="#111313"/><rect x="384.5" y="256.5" width="15" height="15" rx="3.68" fill="#111313"/><rect x="400.5" y="256.5" width="15" height="15" rx="3.68" fill="#111313"/><rect x="432.5" y="256.5" width="15" height="15" rx="3.68" fill="#111313"/><rect x="448.5" y="256.5" width="15" height="15" rx="3.68" fill="#111313"/><rect x="544.5" y="256.5" width="15" height="15" rx="3.68" fill="#111313"/><rect x="560.5" y="256.5" width="15" height="15" rx="3.68" fill="#111313"/><rect x="624.5" y="256.5" width="15" height="15" rx="3.68" fill="#111313"/><rect x="64.5" y="272.5" width="15" height="15" rx="3.68" fill="#111313"/><rect x="112.5" y="272.5" width="15" height="15" rx="3.68" fill="#111313"/><rect x="128.5" y="272.5" width="15" height="15" rx="3.68" fill="#111313"/><rect x="176.5" y="272.5" width="15" height="15" rx="3.68" fill="#111313"/><rect x="192.5" y="272.5" width="15" height="15" rx="3.68" fill="#111313"/><rect x="208.5" y="272.5" width="15" height="15" rx="3.68" fill="#111313"/><rect x="288.5" y="272.5" width="15" height="15" rx="3.68" fill="#111313"/><rect x="336.5" y="272.5" width="15" height="15" rx="3.68" fill="#111313"/><rect x="352.5" y="272.5" width="15" height="15" rx="3.68" fill="#111313"/><rect x="400.5" y="272.5" width="15" height="15" rx="3.68" fill="#111313"/><rect x="432.5" y="272.5" width="15" height="15" rx="3.68" fill="#111313"/><rect x="464.5" y="272.5" width="15" height="15" rx="3.68" fill="#111313"/><rect x="496.5" y="272.5" width="15" height="15" rx="3.68" fill="#111313"/><rect x="512.5" y="272.5" width="15" height="15" rx="3.68" fill="#111313"/><rect x="560.5" y="272.5" width="15" height="15" rx="3.68" fill="#111313"/><rect x="64.5" y="288.5" width="15" height="15" rx="3.68" fill="#111313"/><rect x="96.5" y="288.5" width="15" height="15" rx="3.68" fill="#111313"/><rect x="112.5" y="288.5" width="15" height="15" rx="3.68" fill="#111313"/><rect x="128.5" y="288.5" width="15" height="15" rx="3.68" fill="#111313"/><rect x="160.5" y="288.5" width="15" height="15" rx="3.68" fill="#111313"/><rect x="192.5" y="288.5" width="15" height="15" rx="3.68" fill="#111313"/><rect x="224.5" y="288.5" width="15" height="15" rx="3.68" fill="#111313"/><rect x="256.5" y="288.5" width="15" height="15" rx="3.68" fill="#111313"/><rect x="272.5" y="288.5" width="15" height="15" rx="3.68" fill="#111313"/><rect x="288.5" y="288.5" width="15" height="15" rx="3.68" fill="#111313"/><rect x="320.5" y="288.5" width="15" height="15" rx="3.68" fill="#111313"/><rect x="336.5" y="288.5" width="15" height="15" rx="3.68" fill="#111313"/><rect x="352.5" y="288.5" width="15" height="15" rx="3.68" fill="#111313"/><rect x="432.5" y="288.5" width="15" height="15" rx="3.68" fill="#111313"/><rect x="448.5" y="288.5" width="15" height="15" rx="3.68" fill="#111313"/><rect x="480.5" y="288.5" width="15" height="15" rx="3.68" fill="#111313"/><rect x="496.5" y="288.5" width="15" height="15" rx="3.68" fill="#111313"/><rect x="512.5" y="288.5" width="15" height="15" rx="3.68" fill="#111313"/><rect x="528.5" y="288.5" width="15" height="15" rx="3.68" fill="#111313"/><rect x="544.5" y="288.5" width="15" height="15" rx="3.68" fill="#111313"/><rect x="576.5" y="288.5" width="15" height="15" rx="3.68" fill="#111313"/><rect x="592.5" y="288.5" width="15" height="15" rx="3.68" fill="#111313"/><rect x="608.5" y="288.5" width="15" height="15" rx="3.68" fill="#111313"/><rect x="624.5" y="288.5" width="15" height="15" rx="3.68" fill="#111313"/><rect x="640.5" y="288.5" width="15" height="15" rx="3.68" fill="#111313"/><rect x="64.5" y="304.5" width="15" height="15" rx="3.68" fill="#111313"/><rect x="80.5" y="304.5" width="15" height="15" rx="3.68" fill="#111313"/><rect x="128.5" y="304.5" width="15" height="15" rx="3.68" fill="#111313"/><rect x="144.5" y="304.5" width="15" height="15" rx="3.68" fill="#111313"/><rect x="192.5" y="304.5" width="15" height="15" rx="3.68" fill="#111313"/><rect x="224.5" y="304.5" width="15" height="15" rx="3.68" fill="#111313"/><rect x="256.5" y="304.5" width="15" height="15" rx="3.68" fill="#111313"/><rect x="320.5" y="304.5" width="15" height="15" rx="3.68" fill="#111313"/><rect x="368.5" y="304.5" width="15" height="15" rx="3.68" fill="#111313"/><rect x="384.5" y="304.5" width="15" height="15" rx="3.68" fill="#111313"/><rect x="400.5" y="304.5" width="15" height="15" rx="3.68" fill="#111313"/><rect x="448.5" y="304.5" width="15" height="15" rx="3.68" fill="#111313"/><rect x="480.5" y="304.5" width="15" height="15" rx="3.68" fill="#111313"/><rect x="592.5" y="304.5" width="15" height="15" rx="3.68" fill="#111313"/><rect x="608.5" y="304.5" width="15" height="15" rx="3.68" fill="#111313"/><rect x="624.5" y="304.5" width="15" height="15" rx="3.68" fill="#111313"/><rect x="80.5" y="320.5" width="15" height="15" rx="3.68" fill="#111313"/><rect x="96.5" y="320.5" width="15" height="15" rx="3.68" fill="#111313"/><rect x="128.5" y="320.5" width="15" height="15" rx="3.68" fill="#111313"/><rect x="160.5" y="320.5" width="15" height="15" rx="3.68" fill="#111313"/><rect x="224.5" y="320.5" width="15" height="15" rx="3.68" fill="#111313"/><rect x="256.5" y="320.5" width="15" height="15" rx="3.68" fill="#111313"/><rect x="272.5" y="320.5" width="15" height="15" rx="3.68" fill="#111313"/><rect x="304.5" y="320.5" width="15" height="15" rx="3.68" fill="#111313"/><rect x="352.5" y="320.5" width="15" height="15" rx="3.68" fill="#111313"/><rect x="384.5" y="320.5" width="15" height="15" rx="3.68" fill="#111313"/><rect x="400.5" y="320.5" width="15" height="15" rx="3.68" fill="#111313"/><rect x="432.5" y="320.5" width="15" height="15" rx="3.68" fill="#111313"/><rect x="464.5" y="320.5" width="15" height="15" rx="3.68" fill="#111313"/><rect x="480.5" y="320.5" width="15" height="15" rx="3.68" fill="#111313"/><rect x="512.5" y="320.5" width="15" height="15" rx="3.68" fill="#111313"/><rect x="528.5" y="320.5" width="15" height="15" rx="3.68" fill="#111313"/><rect x="544.5" y="320.5" width="15" height="15" rx="3.68" fill="#111313"/><rect x="560.5" y="320.5" width="15" height="15" rx="3.68" fill="#111313"/><rect x="576.5" y="320.5" width="15" height="15" rx="3.68" fill="#111313"/><rect x="592.5" y="320.5" width="15" height="15" rx="3.68" fill="#111313"/><rect x="608.5" y="320.5" width="15" height="15" rx="3.68" fill="#111313"/><rect x="640.5" y="320.5" width="15" height="15" rx="3.68" fill="#111313"/><rect x="80.5" y="336.5" width="15" height="15" rx="3.68" fill="#111313"/><rect x="128.5" y="336.5" width="15" height="15" rx="3.68" fill="#111313"/><rect x="176.5" y="336.5" width="15" height="15" rx="3.68" fill="#111313"/><rect x="192.5" y="336.5" width="15" height="15" rx="3.68" fill="#111313"/><rect x="208.5" y="336.5" width="15" height="15" rx="3.68" fill="#111313"/><rect x="240.5" y="336.5" width="15" height="15" rx="3.68" fill="#111313"/><rect x="256.5" y="336.5" width="15" height="15" rx="3.68" fill="#111313"/><rect x="272.5" y="336.5" width="15" height="15" rx="3.68" fill="#111313"/><rect x="368.5" y="336.5" width="15" height="15" rx="3.68" fill="#111313"/><rect x="384.5" y="336.5" width="15" height="15" rx="3.68" fill="#111313"/><rect x="432.5" y="336.5" width="15" height="15" rx="3.68" fill="#111313"/><rect x="496.5" y="336.5" width="15" height="15" rx="3.68" fill="#111313"/><rect x="512.5" y="336.5" width="15" height="15" rx="3.68" fill="#111313"/><rect x="560.5" y="336.5" width="15" height="15" rx="3.68" fill="#111313"/><rect x="592.5" y="336.5" width="15" height="15" rx="3.68" fill="#111313"/><rect x="80.5" y="352.5" width="15" height="15" rx="3.68" fill="#111313"/><rect x="112.5" y="352.5" width="15" height="15" rx="3.68" fill="#111313"/><rect x="128.5" y="352.5" width="15" height="15" rx="3.68" fill="#111313"/><rect x="160.5" y="352.5" width="15" height="15" rx="3.68" fill="#111313"/><rect x="176.5" y="352.5" width="15" height="15" rx="3.68" fill="#111313"/><rect x="224.5" y="352.5" width="15" height="15" rx="3.68" fill="#111313"/><rect x="240.5" y="352.5" width="15" height="15" rx="3.68" fill="#111313"/><rect x="256.5" y="352.5" width="15" height="15" rx="3.68" fill="#111313"/><rect x="272.5" y="352.5" width="15" height="15" rx="3.68" fill="#111313"/><rect x="288.5" y="352.5" width="15" height="15" rx="3.68" fill="#111313"/><rect x="304.5" y="352.5" width="15" height="15" rx="3.68" fill="#111313"/><rect x="320.5" y="352.5" width="15" height="15" rx="3.68" fill="#111313"/><rect x="336.5" y="352.5" width="15" height="15" rx="3.68" fill="#111313"/><rect x="368.5" y="352.5" width="15" height="15" rx="3.68" fill="#111313"/><rect x="384.5" y="352.5" width="15" height="15" rx="3.68" fill="#111313"/><rect x="400.5" y="352.5" width="15" height="15" rx="3.68" fill="#111313"/><rect x="416.5" y="352.5" width="15" height="15" rx="3.68" fill="#111313"/><rect x="432.5" y="352.5" width="15" height="15" rx="3.68" fill="#111313"/><rect x="480.5" y="352.5" width="15" height="15" rx="3.68" fill="#111313"/><rect x="496.5" y="352.5" width="15" height="15" rx="3.68" fill="#111313"/><rect x="512.5" y="352.5" width="15" height="15" rx="3.68" fill="#111313"/><rect x="528.5" y="352.5" width="15" height="15" rx="3.68" fill="#111313"/><rect x="560.5" y="352.5" width="15" height="15" rx="3.68" fill="#111313"/><rect x="592.5" y="352.5" width="15" height="15" rx="3.68" fill="#111313"/><rect x="608.5" y="352.5" width="15" height="15" rx="3.68" fill="#111313"/><rect x="640.5" y="352.5" width="15" height="15" rx="3.68" fill="#111313"/><rect x="64.5" y="368.5" width="15" height="15" rx="3.68" fill="#111313"/><rect x="176.5" y="368.5" width="15" height="15" rx="3.68" fill="#111313"/><rect x="192.5" y="368.5" width="15" height="15" rx="3.68" fill="#111313"/><rect x="208.5" y="368.5" width="15" height="15" rx="3.68" fill="#111313"/><rect x="224.5" y="368.5" width="15" height="15" rx="3.68" fill="#111313"/><rect x="240.5" y="368.5" width="15" height="15" rx="3.68" fill="#111313"/><rect x="288.5" y="368.5" width="15" height="15" rx="3.68" fill="#111313"/><rect x="304.5" y="368.5" width="15" height="15" rx="3.68" fill="#111313"/><rect x="336.5" y="368.5" width="15" height="15" rx="3.68" fill="#111313"/><rect x="368.5" y="368.5" width="15" height="15" rx="3.68" fill="#111313"/><rect x="432.5" y="368.5" width="15" height="15" rx="3.68" fill="#111313"/><rect x="480.5" y="368.5" width="15" height="15" rx="3.68" fill="#111313"/><rect x="528.5" y="368.5" width="15" height="15" rx="3.68" fill="#111313"/><rect x="592.5" y="368.5" width="15" height="15" rx="3.68" fill="#111313"/><rect x="64.5" y="384.5" width="15" height="15" rx="3.68" fill="#111313"/><rect x="112.5" y="384.5" width="15" height="15" rx="3.68" fill="#111313"/><rect x="128.5" y="384.5" width="15" height="15" rx="3.68" fill="#111313"/><rect x="160.5" y="384.5" width="15" height="15" rx="3.68" fill="#111313"/><rect x="192.5" y="384.5" width="15" height="15" rx="3.68" fill="#111313"/><rect x="208.5" y="384.5" width="15" height="15" rx="3.68" fill="#111313"/><rect x="224.5" y="384.5" width="15" height="15" rx="3.68" fill="#111313"/><rect x="240.5" y="384.5" width="15" height="15" rx="3.68" fill="#111313"/><rect x="256.5" y="384.5" width="15" height="15" rx="3.68" fill="#111313"/><rect x="272.5" y="384.5" width="15" height="15" rx="3.68" fill="#111313"/><rect x="336.5" y="384.5" width="15" height="15" rx="3.68" fill="#111313"/><rect x="368.5" y="384.5" width="15" height="15" rx="3.68" fill="#111313"/><rect x="400.5" y="384.5" width="15" height="15" rx="3.68" fill="#111313"/><rect x="416.5" y="384.5" width="15" height="15" rx="3.68" fill="#111313"/><rect x="464.5" y="384.5" width="15" height="15" rx="3.68" fill="#111313"/><rect x="480.5" y="384.5" width="15" height="15" rx="3.68" fill="#111313"/><rect x="528.5" y="384.5" width="15" height="15" rx="3.68" fill="#111313"/><rect x="544.5" y="384.5" width="15" height="15" rx="3.68" fill="#111313"/><rect x="560.5" y="384.5" width="15" height="15" rx="3.68" fill="#111313"/><rect x="576.5" y="384.5" width="15" height="15" rx="3.68" fill="#111313"/><rect x="592.5" y="384.5" width="15" height="15" rx="3.68" fill="#111313"/><rect x="608.5" y="384.5" width="15" height="15" rx="3.68" fill="#111313"/><rect x="64.5" y="400.5" width="15" height="15" rx="3.68" fill="#111313"/><rect x="96.5" y="400.5" width="15" height="15" rx="3.68" fill="#111313"/><rect x="128.5" y="400.5" width="15" height="15" rx="3.68" fill="#111313"/><rect x="144.5" y="400.5" width="15" height="15" rx="3.68" fill="#111313"/><rect x="192.5" y="400.5" width="15" height="15" rx="3.68" fill="#111313"/><rect x="240.5" y="400.5" width="15" height="15" rx="3.68" fill="#111313"/><rect x="288.5" y="400.5" width="15" height="15" rx="3.68" fill="#111313"/><rect x="368.5" y="400.5" width="15" height="15" rx="3.68" fill="#111313"/><rect x="384.5" y="400.5" width="15" height="15" rx="3.68" fill="#111313"/><rect x="432.5" y="400.5" width="15" height="15" rx="3.68" fill="#111313"/><rect x="496.5" y="400.5" width="15" height="15" rx="3.68" fill="#111313"/><rect x="528.5" y="400.5" width="15" height="15" rx="3.68" fill="#111313"/><rect x="560.5" y="400.5" width="15" height="15" rx="3.68" fill="#111313"/><rect x="576.5" y="400.5" width="15" height="15" rx="3.68" fill="#111313"/><rect x="624.5" y="400.5" width="15" height="15" rx="3.68" fill="#111313"/><rect x="128.5" y="416.5" width="15" height="15" rx="3.68" fill="#111313"/><rect x="160.5" y="416.5" width="15" height="15" rx="3.68" fill="#111313"/><rect x="208.5" y="416.5" width="15" height="15" rx="3.68" fill="#111313"/><rect x="240.5" y="416.5" width="15" height="15" rx="3.68" fill="#111313"/><rect x="272.5" y="416.5" width="15" height="15" rx="3.68" fill="#111313"/><rect x="352.5" y="416.5" width="15" height="15" rx="3.68" fill="#111313"/><rect x="368.5" y="416.5" width="15" height="15" rx="3.68" fill="#111313"/><rect x="400.5" y="416.5" width="15" height="15" rx="3.68" fill="#111313"/><rect x="480.5" y="416.5" width="15" height="15" rx="3.68" fill="#111313"/><rect x="496.5" y="416.5" width="15" height="15" rx="3.68" fill="#111313"/><rect x="560.5" y="416.5" width="15" height="15" rx="3.68" fill="#111313"/><rect x="592.5" y="416.5" width="15" height="15" rx="3.68" fill="#111313"/><rect x="640.5" y="416.5" width="15" height="15" rx="3.68" fill="#111313"/><rect x="80.5" y="432.5" width="15" height="15" rx="3.68" fill="#111313"/><rect x="128.5" y="432.5" width="15" height="15" rx="3.68" fill="#111313"/><rect x="144.5" y="432.5" width="15" height="15" rx="3.68" fill="#111313"/><rect x="176.5" y="432.5" width="15" height="15" rx="3.68" fill="#111313"/><rect x="208.5" y="432.5" width="15" height="15" rx="3.68" fill="#111313"/><rect x="224.5" y="432.5" width="15" height="15" rx="3.68" fill="#111313"/><rect x="240.5" y="432.5" width="15" height="15" rx="3.68" fill="#111313"/><rect x="272.5" y="432.5" width="15" height="15" rx="3.68" fill="#111313"/><rect x="304.5" y="432.5" width="15" height="15" rx="3.68" fill="#111313"/><rect x="320.5" y="432.5" width="15" height="15" rx="3.68" fill="#111313"/><rect x="352.5" y="432.5" width="15" height="15" rx="3.68" fill="#111313"/><rect x="384.5" y="432.5" width="15" height="15" rx="3.68" fill="#111313"/><rect x="400.5" y="432.5" width="15" height="15" rx="3.68" fill="#111313"/><rect x="432.5" y="432.5" width="15" height="15" rx="3.68" fill="#111313"/><rect x="448.5" y="432.5" width="15" height="15" rx="3.68" fill="#111313"/><rect x="544.5" y="432.5" width="15" height="15" rx="3.68" fill="#111313"/><rect x="592.5" y="432.5" width="15" height="15" rx="3.68" fill="#111313"/><rect x="624.5" y="432.5" width="15" height="15" rx="3.68" fill="#111313"/><rect x="640.5" y="432.5" width="15" height="15" rx="3.68" fill="#111313"/><rect x="64.5" y="448.5" width="15" height="15" rx="3.68" fill="#111313"/><rect x="80.5" y="448.5" width="15" height="15" rx="3.68" fill="#111313"/><rect x="96.5" y="448.5" width="15" height="15" rx="3.68" fill="#111313"/><rect x="128.5" y="448.5" width="15" height="15" rx="3.68" fill="#111313"/><rect x="144.5" y="448.5" width="15" height="15" rx="3.68" fill="#111313"/><rect x="160.5" y="448.5" width="15" height="15" rx="3.68" fill="#111313"/><rect x="208.5" y="448.5" width="15" height="15" rx="3.68" fill="#111313"/><rect x="240.5" y="448.5" width="15" height="15" rx="3.68" fill="#111313"/><rect x="256.5" y="448.5" width="15" height="15" rx="3.68" fill="#111313"/><rect x="288.5" y="448.5" width="15" height="15" rx="3.68" fill="#111313"/><rect x="304.5" y="448.5" width="15" height="15" rx="3.68" fill="#111313"/><rect x="320.5" y="448.5" width="15" height="15" rx="3.68" fill="#111313"/><rect x="416.5" y="448.5" width="15" height="15" rx="3.68" fill="#111313"/><rect x="464.5" y="448.5" width="15" height="15" rx="3.68" fill="#111313"/><rect x="480.5" y="448.5" width="15" height="15" rx="3.68" fill="#111313"/><rect x="496.5" y="448.5" width="15" height="15" rx="3.68" fill="#111313"/><rect x="544.5" y="448.5" width="15" height="15" rx="3.68" fill="#111313"/><rect x="592.5" y="448.5" width="15" height="15" rx="3.68" fill="#111313"/><rect x="624.5" y="448.5" width="15" height="15" rx="3.68" fill="#111313"/><rect x="640.5" y="448.5" width="15" height="15" rx="3.68" fill="#111313"/><rect x="64.5" y="464.5" width="15" height="15" rx="3.68" fill="#111313"/><rect x="96.5" y="464.5" width="15" height="15" rx="3.68" fill="#111313"/><rect x="128.5" y="464.5" width="15" height="15" rx="3.68" fill="#111313"/><rect x="192.5" y="464.5" width="15" height="15" rx="3.68" fill="#111313"/><rect x="208.5" y="464.5" width="15" height="15" rx="3.68" fill="#111313"/><rect x="240.5" y="464.5" width="15" height="15" rx="3.68" fill="#111313"/><rect x="288.5" y="464.5" width="15" height="15" rx="3.68" fill="#111313"/><rect x="304.5" y="464.5" width="15" height="15" rx="3.68" fill="#111313"/><rect x="320.5" y="464.5" width="15" height="15" rx="3.68" fill="#111313"/><rect x="384.5" y="464.5" width="15" height="15" rx="3.68" fill="#111313"/><rect x="400.5" y="464.5" width="15" height="15" rx="3.68" fill="#111313"/><rect x="448.5" y="464.5" width="15" height="15" rx="3.68" fill="#111313"/><rect x="464.5" y="464.5" width="15" height="15" rx="3.68" fill="#111313"/><rect x="496.5" y="464.5" width="15" height="15" rx="3.68" fill="#111313"/><rect x="512.5" y="464.5" width="15" height="15" rx="3.68" fill="#111313"/><rect x="528.5" y="464.5" width="15" height="15" rx="3.68" fill="#111313"/><rect x="64.5" y="480.5" width="15" height="15" rx="3.68" fill="#111313"/><rect x="96.5" y="480.5" width="15" height="15" rx="3.68" fill="#111313"/><rect x="112.5" y="480.5" width="15" height="15" rx="3.68" fill="#111313"/><rect x="144.5" y="480.5" width="15" height="15" rx="3.68" fill="#111313"/><rect x="160.5" y="480.5" width="15" height="15" rx="3.68" fill="#111313"/><rect x="208.5" y="480.5" width="15" height="15" rx="3.68" fill="#111313"/><rect x="240.5" y="480.5" width="15" height="15" rx="3.68" fill="#111313"/><rect x="272.5" y="480.5" width="15" height="15" rx="3.68" fill="#111313"/><rect x="304.5" y="480.5" width="15" height="15" rx="3.68" fill="#111313"/><rect x="368.5" y="480.5" width="15" height="15" rx="3.68" fill="#111313"/><rect x="384.5" y="480.5" width="15" height="15" rx="3.68" fill="#111313"/><rect x="400.5" y="480.5" width="15" height="15" rx="3.68" fill="#111313"/><rect x="464.5" y="480.5" width="15" height="15" rx="3.68" fill="#111313"/><rect x="496.5" y="480.5" width="15" height="15" rx="3.68" fill="#111313"/><rect x="512.5" y="480.5" width="15" height="15" rx="3.68" fill="#111313"/><rect x="528.5" y="480.5" width="15" height="15" rx="3.68" fill="#111313"/><rect x="544.5" y="480.5" width="15" height="15" rx="3.68" fill="#111313"/><rect x="592.5" y="480.5" width="15" height="15" rx="3.68" fill="#111313"/><rect x="608.5" y="480.5" width="15" height="15" rx="3.68" fill="#111313"/><rect x="624.5" y="480.5" width="15" height="15" rx="3.68" fill="#111313"/><rect x="640.5" y="480.5" width="15" height="15" rx="3.68" fill="#111313"/><rect x="64.5" y="496.5" width="15" height="15" rx="3.68" fill="#111313"/><rect x="112.5" y="496.5" width="15" height="15" rx="3.68" fill="#111313"/><rect x="128.5" y="496.5" width="15" height="15" rx="3.68" fill="#111313"/><rect x="176.5" y="496.5" width="15" height="15" rx="3.68" fill="#111313"/><rect x="208.5" y="496.5" width="15" height="15" rx="3.68" fill="#111313"/><rect x="224.5" y="496.5" width="15" height="15" rx="3.68" fill="#111313"/><rect x="288.5" y="496.5" width="15" height="15" rx="3.68" fill="#111313"/><rect x="304.5" y="496.5" width="15" height="15" rx="3.68" fill="#111313"/><rect x="320.5" y="496.5" width="15" height="15" rx="3.68" fill="#111313"/><rect x="336.5" y="496.5" width="15" height="15" rx="3.68" fill="#111313"/><rect x="352.5" y="496.5" width="15" height="15" rx="3.68" fill="#111313"/><rect x="400.5" y="496.5" width="15" height="15" rx="3.68" fill="#111313"/><rect x="448.5" y="496.5" width="15" height="15" rx="3.68" fill="#111313"/><rect x="512.5" y="496.5" width="15" height="15" rx="3.68" fill="#111313"/><rect x="528.5" y="496.5" width="15" height="15" rx="3.68" fill="#111313"/><rect x="544.5" y="496.5" width="15" height="15" rx="3.68" fill="#111313"/><rect x="576.5" y="496.5" width="15" height="15" rx="3.68" fill="#111313"/><rect x="592.5" y="496.5" width="15" height="15" rx="3.68" fill="#111313"/><rect x="608.5" y="496.5" width="15" height="15" rx="3.68" fill="#111313"/><rect x="624.5" y="496.5" width="15" height="15" rx="3.68" fill="#111313"/><rect x="640.5" y="496.5" width="15" height="15" rx="3.68" fill="#111313"/><rect x="64.5" y="512.5" width="15" height="15" rx="3.68" fill="#111313"/><rect x="112.5" y="512.5" width="15" height="15" rx="3.68" fill="#111313"/><rect x="128.5" y="512.5" width="15" height="15" rx="3.68" fill="#111313"/><rect x="160.5" y="512.5" width="15" height="15" rx="3.68" fill="#111313"/><rect x="192.5" y="512.5" width="15" height="15" rx="3.68" fill="#111313"/><rect x="208.5" y="512.5" width="15" height="15" rx="3.68" fill="#111313"/><rect x="272.5" y="512.5" width="15" height="15" rx="3.68" fill="#111313"/><rect x="304.5" y="512.5" width="15" height="15" rx="3.68" fill="#111313"/><rect x="336.5" y="512.5" width="15" height="15" rx="3.68" fill="#111313"/><rect x="352.5" y="512.5" width="15" height="15" rx="3.68" fill="#111313"/><rect x="368.5" y="512.5" width="15" height="15" rx="3.68" fill="#111313"/><rect x="384.5" y="512.5" width="15" height="15" rx="3.68" fill="#111313"/><rect x="400.5" y="512.5" width="15" height="15" rx="3.68" fill="#111313"/><rect x="448.5" y="512.5" width="15" height="15" rx="3.68" fill="#111313"/><rect x="464.5" y="512.5" width="15" height="15" rx="3.68" fill="#111313"/><rect x="480.5" y="512.5" width="15" height="15" rx="3.68" fill="#111313"/><rect x="496.5" y="512.5" width="15" height="15" rx="3.68" fill="#111313"/><rect x="512.5" y="512.5" width="15" height="15" rx="3.68" fill="#111313"/><rect x="528.5" y="512.5" width="15" height="15" rx="3.68" fill="#111313"/><rect x="544.5" y="512.5" width="15" height="15" rx="3.68" fill="#111313"/><rect x="560.5" y="512.5" width="15" height="15" rx="3.68" fill="#111313"/><rect x="576.5" y="512.5" width="15" height="15" rx="3.68" fill="#111313"/><rect x="608.5" y="512.5" width="15" height="15" rx="3.68" fill="#111313"/><rect x="624.5" y="512.5" width="15" height="15" rx="3.68" fill="#111313"/><rect x="640.5" y="512.5" width="15" height="15" rx="3.68" fill="#111313"/><rect x="192.5" y="528.5" width="15" height="15" rx="3.68" fill="#111313"/><rect x="288.5" y="528.5" width="15" height="15" rx="3.68" fill="#111313"/><rect x="336.5" y="528.5" width="15" height="15" rx="3.68" fill="#111313"/><rect x="352.5" y="528.5" width="15" height="15" rx="3.68" fill="#111313"/><rect x="368.5" y="528.5" width="15" height="15" rx="3.68" fill="#111313"/><rect x="416.5" y="528.5" width="15" height="15" rx="3.68" fill="#111313"/><rect x="432.5" y="528.5" width="15" height="15" rx="3.68" fill="#111313"/><rect x="464.5" y="528.5" width="15" height="15" rx="3.68" fill="#111313"/><rect x="480.5" y="528.5" width="15" height="15" rx="3.68" fill="#111313"/><rect x="512.5" y="528.5" width="15" height="15" rx="3.68" fill="#111313"/><rect x="576.5" y="528.5" width="15" height="15" rx="3.68" fill="#111313"/><rect x="624.5" y="528.5" width="15" height="15" rx="3.68" fill="#111313"/><rect x="256.5" y="544.5" width="15" height="15" rx="3.68" fill="#111313"/><rect x="368.5" y="544.5" width="15" height="15" rx="3.68" fill="#111313"/><rect x="384.5" y="544.5" width="15" height="15" rx="3.68" fill="#111313"/><rect x="416.5" y="544.5" width="15" height="15" rx="3.68" fill="#111313"/><rect x="432.5" y="544.5" width="15" height="15" rx="3.68" fill="#111313"/><rect x="464.5" y="544.5" width="15" height="15" rx="3.68" fill="#111313"/><rect x="480.5" y="544.5" width="15" height="15" rx="3.68" fill="#111313"/><rect x="512.5" y="544.5" width="15" height="15" rx="3.68" fill="#111313"/><rect x="544.5" y="544.5" width="15" height="15" rx="3.68" fill="#111313"/><rect x="576.5" y="544.5" width="15" height="15" rx="3.68" fill="#111313"/><rect x="640.5" y="544.5" width="15" height="15" rx="3.68" fill="#111313"/><rect x="192.5" y="560.5" width="15" height="15" rx="3.68" fill="#111313"/><rect x="208.5" y="560.5" width="15" height="15" rx="3.68" fill="#111313"/><rect x="224.5" y="560.5" width="15" height="15" rx="3.68" fill="#111313"/><rect x="320.5" y="560.5" width="15" height="15" rx="3.68" fill="#111313"/><rect x="352.5" y="560.5" width="15" height="15" rx="3.68" fill="#111313"/><rect x="368.5" y="560.5" width="15" height="15" rx="3.68" fill="#111313"/><rect x="400.5" y="560.5" width="15" height="15" rx="3.68" fill="#111313"/><rect x="432.5" y="560.5" width="15" height="15" rx="3.68" fill="#111313"/><rect x="448.5" y="560.5" width="15" height="15" rx="3.68" fill="#111313"/><rect x="496.5" y="560.5" width="15" height="15" rx="3.68" fill="#111313"/><rect x="512.5" y="560.5" width="15" height="15" rx="3.68" fill="#111313"/><rect x="576.5" y="560.5" width="15" height="15" rx="3.68" fill="#111313"/><rect x="208.5" y="576.5" width="15" height="15" rx="3.68" fill="#111313"/><rect x="240.5" y="576.5" width="15" height="15" rx="3.68" fill="#111313"/><rect x="256.5" y="576.5" width="15" height="15" rx="3.68" fill="#111313"/><rect x="288.5" y="576.5" width="15" height="15" rx="3.68" fill="#111313"/><rect x="320.5" y="576.5" width="15" height="15" rx="3.68" fill="#111313"/><rect x="336.5" y="576.5" width="15" height="15" rx="3.68" fill="#111313"/><rect x="400.5" y="576.5" width="15" height="15" rx="3.68" fill="#111313"/><rect x="416.5" y="576.5" width="15" height="15" rx="3.68" fill="#111313"/><rect x="448.5" y="576.5" width="15" height="15" rx="3.68" fill="#111313"/><rect x="464.5" y="576.5" width="15" height="15" rx="3.68" fill="#111313"/><rect x="480.5" y="576.5" width="15" height="15" rx="3.68" fill="#111313"/><rect x="496.5" y="576.5" width="15" height="15" rx="3.68" fill="#111313"/><rect x="512.5" y="576.5" width="15" height="15" rx="3.68" fill="#111313"/><rect x="528.5" y="576.5" width="15" height="15" rx="3.68" fill="#111313"/><rect x="544.5" y="576.5" width="15" height="15" rx="3.68" fill="#111313"/><rect x="560.5" y="576.5" width="15" height="15" rx="3.68" fill="#111313"/><rect x="576.5" y="576.5" width="15" height="15" rx="3.68" fill="#111313"/><rect x="608.5" y="576.5" width="15" height="15" rx="3.68" fill="#111313"/><rect x="640.5" y="576.5" width="15" height="15" rx="3.68" fill="#111313"/><rect x="208.5" y="592.5" width="15" height="15" rx="3.68" fill="#111313"/><rect x="256.5" y="592.5" width="15" height="15" rx="3.68" fill="#111313"/><rect x="288.5" y="592.5" width="15" height="15" rx="3.68" fill="#111313"/><rect x="304.5" y="592.5" width="15" height="15" rx="3.68" fill="#111313"/><rect x="320.5" y="592.5" width="15" height="15" rx="3.68" fill="#111313"/><rect x="336.5" y="592.5" width="15" height="15" rx="3.68" fill="#111313"/><rect x="400.5" y="592.5" width="15" height="15" rx="3.68" fill="#111313"/><rect x="416.5" y="592.5" width="15" height="15" rx="3.68" fill="#111313"/><rect x="480.5" y="592.5" width="15" height="15" rx="3.68" fill="#111313"/><rect x="512.5" y="592.5" width="15" height="15" rx="3.68" fill="#111313"/><rect x="528.5" y="592.5" width="15" height="15" rx="3.68" fill="#111313"/><rect x="544.5" y="592.5" width="15" height="15" rx="3.68" fill="#111313"/><rect x="560.5" y="592.5" width="15" height="15" rx="3.68" fill="#111313"/><rect x="224.5" y="608.5" width="15" height="15" rx="3.68" fill="#111313"/><rect x="272.5" y="608.5" width="15" height="15" rx="3.68" fill="#111313"/><rect x="288.5" y="608.5" width="15" height="15" rx="3.68" fill="#111313"/><rect x="304.5" y="608.5" width="15" height="15" rx="3.68" fill="#111313"/><rect x="320.5" y="608.5" width="15" height="15" rx="3.68" fill="#111313"/><rect x="352.5" y="608.5" width="15" height="15" rx="3.68" fill="#111313"/><rect x="368.5" y="608.5" width="15" height="15" rx="3.68" fill="#111313"/><rect x="384.5" y="608.5" width="15" height="15" rx="3.68" fill="#111313"/><rect x="416.5" y="608.5" width="15" height="15" rx="3.68" fill="#111313"/><rect x="432.5" y="608.5" width="15" height="15" rx="3.68" fill="#111313"/><rect x="448.5" y="608.5" width="15" height="15" rx="3.68" fill="#111313"/><rect x="464.5" y="608.5" width="15" height="15" rx="3.68" fill="#111313"/><rect x="480.5" y="608.5" width="15" height="15" rx="3.68" fill="#111313"/><rect x="528.5" y="608.5" width="15" height="15" rx="3.68" fill="#111313"/><rect x="560.5" y="608.5" width="15" height="15" rx="3.68" fill="#111313"/><rect x="592.5" y="608.5" width="15" height="15" rx="3.68" fill="#111313"/><rect x="608.5" y="608.5" width="15" height="15" rx="3.68" fill="#111313"/><rect x="640.5" y="608.5" width="15" height="15" rx="3.68" fill="#111313"/><rect x="208.5" y="624.5" width="15" height="15" rx="3.68" fill="#111313"/><rect x="240.5" y="624.5" width="15" height="15" rx="3.68" fill="#111313"/><rect x="256.5" y="624.5" width="15" height="15" rx="3.68" fill="#111313"/><rect x="272.5" y="624.5" width="15" height="15" rx="3.68" fill="#111313"/><rect x="304.5" y="624.5" width="15" height="15" rx="3.68" fill="#111313"/><rect x="320.5" y="624.5" width="15" height="15" rx="3.68" fill="#111313"/><rect x="336.5" y="624.5" width="15" height="15" rx="3.68" fill="#111313"/><rect x="352.5" y="624.5" width="15" height="15" rx="3.68" fill="#111313"/><rect x="368.5" y="624.5" width="15" height="15" rx="3.68" fill="#111313"/><rect x="416.5" y="624.5" width="15" height="15" rx="3.68" fill="#111313"/><rect x="432.5" y="624.5" width="15" height="15" rx="3.68" fill="#111313"/><rect x="496.5" y="624.5" width="15" height="15" rx="3.68" fill="#111313"/><rect x="512.5" y="624.5" width="15" height="15" rx="3.68" fill="#111313"/><rect x="528.5" y="624.5" width="15" height="15" rx="3.68" fill="#111313"/><rect x="544.5" y="624.5" width="15" height="15" rx="3.68" fill="#111313"/><rect x="560.5" y="624.5" width="15" height="15" rx="3.68" fill="#111313"/><rect x="592.5" y="624.5" width="15" height="15" rx="3.68" fill="#111313"/><rect x="640.5" y="624.5" width="15" height="15" rx="3.68" fill="#111313"/><rect x="224.5" y="640.5" width="15" height="15" rx="3.68" fill="#111313"/><rect x="256.5" y="640.5" width="15" height="15" rx="3.68" fill="#111313"/><rect x="304.5" y="640.5" width="15" height="15" rx="3.68" fill="#111313"/><rect x="352.5" y="640.5" width="15" height="15" rx="3.68" fill="#111313"/><rect x="368.5" y="640.5" width="15" height="15" rx="3.68" fill="#111313"/><rect x="384.5" y="640.5" width="15" height="15" rx="3.68" fill="#111313"/><rect x="400.5" y="640.5" width="15" height="15" rx="3.68" fill="#111313"/><rect x="416.5" y="640.5" width="15" height="15" rx="3.68" fill="#111313"/><rect x="512.5" y="640.5" width="15" height="15" rx="3.68" fill="#111313"/><rect x="640.5" y="640.5" width="15" height="15" rx="3.68" fill="#111313"/><rect x="64" y="64" width="112" height="112" rx="12" fill="#111313"/><rect x="80" y="80" width="80" height="80" rx="8.8" fill="#e7e5da"/><rect x="96" y="96" width="48" height="48" rx="6.4" fill="#111313"/><rect x="544" y="64" width="112" height="112" rx="12" fill="#111313"/><rect x="560" y="80" width="80" height="80" rx="8.8" fill="#e7e5da"/><rect x="576" y="96" width="48" height="48" rx="6.4" fill="#111313"/><rect x="64" y="544" width="112" height="112" rx="12" fill="#111313"/><rect x="80" y="560" width="80" height="80" rx="8.8" fill="#e7e5da"/><rect x="96" y="576" width="48" height="48" rx="6.4" fill="#111313"/><circle cx="360" cy="360" r="35.2" fill="#e7e5da" stroke="#111313" stroke-width="2"/><path d="M339 350h8v1h-8z" fill="#111313"/><path d="M352 350h14v1h-14z" fill="#111313"/><path d="M371 350h6v1h-6z" fill="#111313"/><path d="M339 351h10v1h-10z" fill="#111313"/><path d="M352 351h14v1h-14z" fill="#111313"/><path d="M369 351h10v1h-10z" fill="#111313"/><path d="M339 352h2v1h-2z" fill="#111313"/><path d="M347 352h3v1h-3z" fill="#111313"/><path d="M358 352h2v1h-2z" fill="#111313"/><path d="M368 352h3v1h-3z" fill="#111313"/><path d="M376 352h4v1h-4z" fill="#111313"/><path d="M339 353h2v1h-2z" fill="#111313"/><path d="M348 353h2v1h-2z" fill="#111313"/><path d="M358 353h2v1h-2z" fill="#111313"/><path d="M368 353h2v1h-2z" fill="#111313"/><path d="M378 353h3v1h-3z" fill="#111313"/><path d="M339 354h2v1h-2z" fill="#111313"/><path d="M348 354h2v1h-2z" fill="#111313"/><path d="M358 354h2v1h-2z" fill="#111313"/><path d="M367 354h2v1h-2z" fill="#111313"/><path d="M379 354h2v1h-2z" fill="#111313"/><path d="M339 355h2v1h-2z" fill="#111313"/><path d="M348 355h2v1h-2z" fill="#111313"/><path d="M358 355h2v1h-2z" fill="#111313"/><path d="M367 355h2v1h-2z" fill="#111313"/><path d="M339 356h2v1h-2z" fill="#111313"/><path d="M348 356h2v1h-2z" fill="#111313"/><path d="M358 356h2v1h-2z" fill="#111313"/><path d="M366 356h2v1h-2z" fill="#111313"/><path d="M339 357h2v1h-2z" fill="#111313"/><path d="M347 357h2v1h-2z" fill="#111313"/><path d="M358 357h2v1h-2z" fill="#111313"/><path d="M366 357h2v1h-2z" fill="#111313"/><path d="M339 358h9v1h-9z" fill="#111313"/><path d="M358 358h2v1h-2z" fill="#111313"/><path d="M366 358h2v1h-2z" fill="#111313"/><path d="M339 359h10v1h-10z" fill="#111313"/><path d="M358 359h2v1h-2z" fill="#111313"/><path d="M366 359h2v1h-2z" fill="#111313"/><path d="M339 360h2v1h-2z" fill="#111313"/><path d="M348 360h2v1h-2z" fill="#111313"/><path d="M358 360h2v1h-2z" fill="#111313"/><path d="M366 360h2v1h-2z" fill="#111313"/><path d="M339 361h2v1h-2z" fill="#111313"/><path d="M349 361h2v1h-2z" fill="#111313"/><path d="M358 361h2v1h-2z" fill="#111313"/><path d="M366 361h2v1h-2z" fill="#111313"/><path d="M339 362h2v1h-2z" fill="#111313"/><path d="M349 362h2v1h-2z" fill="#111313"/><path d="M358 362h2v1h-2z" fill="#111313"/><path d="M367 362h2v1h-2z" fill="#111313"/><path d="M339 363h2v1h-2z" fill="#111313"/><path d="M349 363h2v1h-2z" fill="#111313"/><path d="M358 363h2v1h-2z" fill="#111313"/><path d="M367 363h2v1h-2z" fill="#111313"/><path d="M379 363h2v1h-2z" fill="#111313"/><path d="M339 364h2v1h-2z" fill="#111313"/><path d="M349 364h2v1h-2z" fill="#111313"/><path d="M358 364h2v1h-2z" fill="#111313"/><path d="M368 364h2v1h-2z" fill="#111313"/><path d="M378 364h3v1h-3z" fill="#111313"/><path d="M339 365h2v1h-2z" fill="#111313"/><path d="M348 365h2v1h-2z" fill="#111313"/><path d="M358 365h2v1h-2z" fill="#111313"/><path d="M368 365h3v1h-3z" fill="#111313"/><path d="M376 365h4v1h-4z" fill="#111313"/><path d="M339 366h11v1h-11z" fill="#111313"/><path d="M358 366h2v1h-2z" fill="#111313"/><path d="M369 366h10v1h-10z" fill="#111313"/><path d="M339 367h9v1h-9z" fill="#111313"/><path d="M358 367h2v1h-2z" fill="#111313"/><path d="M371 367h6v1h-6z" fill="#111313"/></svg>