<svg xmlns="http://www.w3.org/2000/svg" width="720" height="720" viewBox="0 0 720 720" role="img" aria-label="QR code Ethereum · ERC-20 0x0dfB848954Eb0b579fC16F99Ef3434fB80809e0A"><title>Don Ethereum · ERC-20 : 0x0dfB848954Eb0b579fC16F99Ef3434fB80809e0A</title><rect x="192.5" y="64.5" width="15" height="15" rx="3.68" fill="#111313"/><rect x="224.5" y="64.5" width="15" height="15" rx="3.68" fill="#111313"/><rect x="304.5" y="64.5" width="15" height="15" rx="3.68" fill="#111313"/><rect x="336.5" y="64.5" width="15" height="15" rx="3.68" fill="#111313"/><rect x="352.5" y="64.5" width="15" height="15" rx="3.68" fill="#111313"/><rect x="384.5" y="64.5" width="15" height="15" rx="3.68" fill="#111313"/><rect x="416.5" y="64.5" width="15" height="15" rx="3.68" fill="#111313"/><rect x="432.5" y="64.5" width="15" height="15" rx="3.68" fill="#111313"/><rect x="480.5" y="64.5" width="15" height="15" rx="3.68" fill="#111313"/><rect x="192.5" y="80.5" width="15" height="15" rx="3.68" fill="#111313"/><rect x="208.5" y="80.5" width="15" height="15" rx="3.68" fill="#111313"/><rect x="224.5" y="80.5" width="15" height="15" rx="3.68" fill="#111313"/><rect x="288.5" y="80.5" width="15" height="15" rx="3.68" fill="#111313"/><rect x="304.5" y="80.5" width="15" height="15" rx="3.68" fill="#111313"/><rect x="384.5" y="80.5" width="15" height="15" rx="3.68" fill="#111313"/><rect x="400.5" y="80.5" width="15" height="15" rx="3.68" fill="#111313"/><rect x="416.5" y="80.5" width="15" height="15" rx="3.68" fill="#111313"/><rect x="448.5" y="80.5" width="15" height="15" rx="3.68" fill="#111313"/><rect x="464.5" y="80.5" width="15" height="15" rx="3.68" fill="#111313"/><rect x="496.5" y="80.5" width="15" height="15" rx="3.68" fill="#111313"/><rect x="512.5" y="80.5" width="15" height="15" rx="3.68" fill="#111313"/><rect x="192.5" y="96.5" width="15" height="15" rx="3.68" fill="#111313"/><rect x="208.5" y="96.5" width="15" height="15" rx="3.68" fill="#111313"/><rect x="272.5" y="96.5" width="15" height="15" rx="3.68" fill="#111313"/><rect x="304.5" y="96.5" width="15" height="15" rx="3.68" fill="#111313"/><rect x="320.5" y="96.5" width="15" height="15" rx="3.68" fill="#111313"/><rect x="336.5" y="96.5" width="15" height="15" rx="3.68" fill="#111313"/><rect x="432.5" y="96.5" width="15" height="15" rx="3.68" fill="#111313"/><rect x="480.5" y="96.5" width="15" height="15" rx="3.68" fill="#111313"/><rect x="512.5" y="96.5" width="15" height="15" rx="3.68" fill="#111313"/><rect x="224.5" y="112.5" width="15" height="15" rx="3.68" fill="#111313"/><rect x="240.5" y="112.5" width="15" height="15" rx="3.68" fill="#111313"/><rect x="256.5" y="112.5" width="15" height="15" rx="3.68" fill="#111313"/><rect x="272.5" y="112.5" width="15" height="15" rx="3.68" fill="#111313"/><rect x="304.5" y="112.5" width="15" height="15" rx="3.68" fill="#111313"/><rect x="336.5" y="112.5" width="15" height="15" rx="3.68" fill="#111313"/><rect x="352.5" y="112.5" width="15" height="15" rx="3.68" fill="#111313"/><rect x="368.5" y="112.5" width="15" height="15" rx="3.68" fill="#111313"/><rect x="432.5" y="112.5" width="15" height="15" rx="3.68" fill="#111313"/><rect x="448.5" y="112.5" width="15" height="15" rx="3.68" fill="#111313"/><rect x="464.5" y="112.5" width="15" height="15" rx="3.68" fill="#111313"/><rect x="496.5" y="112.5" width="15" height="15" rx="3.68" fill="#111313"/><rect x="512.5" y="112.5" width="15" height="15" rx="3.68" fill="#111313"/><rect x="256.5" y="128.5" width="15" height="15" rx="3.68" fill="#111313"/><rect x="368.5" y="128.5" width="15" height="15" rx="3.68" fill="#111313"/><rect x="384.5" y="128.5" width="15" height="15" rx="3.68" fill="#111313"/><rect x="400.5" y="128.5" width="15" height="15" rx="3.68" fill="#111313"/><rect x="432.5" y="128.5" width="15" height="15" rx="3.68" fill="#111313"/><rect x="480.5" y="128.5" width="15" height="15" rx="3.68" fill="#111313"/><rect x="192.5" y="144.5" width="15" height="15" rx="3.68" fill="#111313"/><rect x="224.5" y="144.5" width="15" height="15" rx="3.68" fill="#111313"/><rect x="240.5" y="144.5" width="15" height="15" rx="3.68" fill="#111313"/><rect x="304.5" y="144.5" width="15" height="15" rx="3.68" fill="#111313"/><rect x="320.5" y="144.5" width="15" height="15" rx="3.68" fill="#111313"/><rect x="336.5" y="144.5" width="15" height="15" rx="3.68" fill="#111313"/><rect x="384.5" y="144.5" width="15" height="15" rx="3.68" fill="#111313"/><rect x="416.5" y="144.5" width="15" height="15" rx="3.68" fill="#111313"/><rect x="432.5" y="144.5" width="15" height="15" rx="3.68" fill="#111313"/><rect x="448.5" y="144.5" width="15" height="15" rx="3.68" fill="#111313"/><rect x="496.5" y="144.5" width="15" height="15" rx="3.68" fill="#111313"/><rect x="192.5" y="160.5" width="15" height="15" rx="3.68" fill="#111313"/><rect x="224.5" y="160.5" width="15" height="15" rx="3.68" fill="#111313"/><rect x="256.5" y="160.5" width="15" height="15" rx="3.68" fill="#111313"/><rect x="288.5" y="160.5" width="15" height="15" rx="3.68" fill="#111313"/><rect x="320.5" y="160.5" width="15" height="15" rx="3.68" fill="#111313"/><rect x="352.5" y="160.5" width="15" height="15" rx="3.68" fill="#111313"/><rect x="384.5" y="160.5" width="15" height="15" rx="3.68" fill="#111313"/><rect x="416.5" y="160.5" width="15" height="15" rx="3.68" fill="#111313"/><rect x="448.5" y="160.5" width="15" height="15" rx="3.68" fill="#111313"/><rect x="480.5" y="160.5" width="15" height="15" rx="3.68" fill="#111313"/><rect x="512.5" y="160.5" width="15" height="15" rx="3.68" fill="#111313"/><rect x="192.5" y="176.5" width="15" height="15" rx="3.68" fill="#111313"/><rect x="208.5" y="176.5" width="15" height="15" rx="3.68" fill="#111313"/><rect x="240.5" y="176.5" width="15" height="15" rx="3.68" fill="#111313"/><rect x="256.5" y="176.5" width="15" height="15" rx="3.68" fill="#111313"/><rect x="288.5" y="176.5" width="15" height="15" rx="3.68" fill="#111313"/><rect x="304.5" y="176.5" width="15" height="15" rx="3.68" fill="#111313"/><rect x="352.5" y="176.5" width="15" height="15" rx="3.68" fill="#111313"/><rect x="368.5" y="176.5" width="15" height="15" rx="3.68" fill="#111313"/><rect x="448.5" y="176.5" width="15" height="15" rx="3.68" fill="#111313"/><rect x="496.5" y="176.5" width="15" height="15" rx="3.68" fill="#111313"/><rect x="96.5" y="192.5" width="15" height="15" rx="3.68" fill="#111313"/><rect x="112.5" y="192.5" width="15" height="15" rx="3.68" fill="#111313"/><rect x="128.5" y="192.5" width="15" height="15" rx="3.68" fill="#111313"/><rect x="160.5" y="192.5" width="15" height="15" rx="3.68" fill="#111313"/><rect x="192.5" y="192.5" width="15" height="15" rx="3.68" fill="#111313"/><rect x="224.5" y="192.5" width="15" height="15" rx="3.68" fill="#111313"/><rect x="240.5" y="192.5" width="15" height="15" rx="3.68" fill="#111313"/><rect x="256.5" y="192.5" width="15" height="15" rx="3.68" fill="#111313"/><rect x="288.5" y="192.5" width="15" height="15" rx="3.68" fill="#111313"/><rect x="304.5" y="192.5" width="15" height="15" rx="3.68" fill="#111313"/><rect x="336.5" y="192.5" width="15" height="15" rx="3.68" fill="#111313"/><rect x="352.5" y="192.5" width="15" height="15" rx="3.68" fill="#111313"/><rect x="368.5" y="192.5" width="15" height="15" rx="3.68" fill="#111313"/><rect x="416.5" y="192.5" width="15" height="15" rx="3.68" fill="#111313"/><rect x="432.5" y="192.5" width="15" height="15" rx="3.68" fill="#111313"/><rect x="448.5" y="192.5" width="15" height="15" rx="3.68" fill="#111313"/><rect x="480.5" y="192.5" width="15" height="15" rx="3.68" fill="#111313"/><rect x="512.5" y="192.5" width="15" height="15" rx="3.68" fill="#111313"/><rect x="528.5" y="192.5" width="15" height="15" rx="3.68" fill="#111313"/><rect x="544.5" y="192.5" width="15" height="15" rx="3.68" fill="#111313"/><rect x="560.5" y="192.5" width="15" height="15" rx="3.68" fill="#111313"/><rect x="608.5" y="192.5" width="15" height="15" rx="3.68" fill="#111313"/><rect x="624.5" y="192.5" width="15" height="15" rx="3.68" fill="#111313"/><rect x="640.5" y="192.5" width="15" height="15" rx="3.68" fill="#111313"/><rect x="64.5" y="208.5" width="15" height="15" rx="3.68" fill="#111313"/><rect x="128.5" y="208.5" width="15" height="15" rx="3.68" fill="#111313"/><rect x="192.5" y="208.5" width="15" height="15" rx="3.68" fill="#111313"/><rect x="208.5" y="208.5" width="15" height="15" rx="3.68" fill="#111313"/><rect x="256.5" y="208.5" width="15" height="15" rx="3.68" fill="#111313"/><rect x="336.5" y="208.5" width="15" height="15" rx="3.68" fill="#111313"/><rect x="416.5" y="208.5" width="15" height="15" rx="3.68" fill="#111313"/><rect x="432.5" y="208.5" width="15" height="15" rx="3.68" fill="#111313"/><rect x="528.5" y="208.5" width="15" height="15" rx="3.68" fill="#111313"/><rect x="592.5" y="208.5" width="15" height="15" rx="3.68" fill="#111313"/><rect x="624.5" y="208.5" width="15" height="15" rx="3.68" fill="#111313"/><rect x="96.5" y="224.5" width="15" height="15" rx="3.68" fill="#111313"/><rect x="112.5" y="224.5" width="15" height="15" rx="3.68" fill="#111313"/><rect x="160.5" y="224.5" width="15" height="15" rx="3.68" fill="#111313"/><rect x="176.5" y="224.5" width="15" height="15" rx="3.68" fill="#111313"/><rect x="224.5" y="224.5" width="15" height="15" rx="3.68" fill="#111313"/><rect x="304.5" y="224.5" width="15" height="15" rx="3.68" fill="#111313"/><rect x="320.5" y="224.5" width="15" height="15" rx="3.68" fill="#111313"/><rect x="336.5" y="224.5" width="15" height="15" rx="3.68" fill="#111313"/><rect x="352.5" y="224.5" width="15" height="15" rx="3.68" fill="#111313"/><rect x="384.5" y="224.5" width="15" height="15" rx="3.68" fill="#111313"/><rect x="400.5" y="224.5" width="15" height="15" rx="3.68" fill="#111313"/><rect x="448.5" y="224.5" width="15" height="15" rx="3.68" fill="#111313"/><rect x="480.5" y="224.5" width="15" height="15" rx="3.68" fill="#111313"/><rect x="496.5" y="224.5" width="15" height="15" rx="3.68" fill="#111313"/><rect x="512.5" y="224.5" width="15" height="15" rx="3.68" fill="#111313"/><rect x="528.5" y="224.5" width="15" height="15" rx="3.68" fill="#111313"/><rect x="544.5" y="224.5" width="15" height="15" rx="3.68" fill="#111313"/><rect x="592.5" y="224.5" width="15" height="15" rx="3.68" fill="#111313"/><rect x="608.5" y="224.5" width="15" height="15" rx="3.68" fill="#111313"/><rect x="640.5" y="224.5" width="15" height="15" rx="3.68" fill="#111313"/><rect x="112.5" y="240.5" width="15" height="15" rx="3.68" fill="#111313"/><rect x="128.5" y="240.5" width="15" height="15" rx="3.68" fill="#111313"/><rect x="208.5" y="240.5" width="15" height="15" rx="3.68" fill="#111313"/><rect x="272.5" y="240.5" width="15" height="15" rx="3.68" fill="#111313"/><rect x="336.5" y="240.5" width="15" height="15" rx="3.68" fill="#111313"/><rect x="352.5" y="240.5" width="15" height="15" rx="3.68" fill="#111313"/><rect x="448.5" y="240.5" width="15" height="15" rx="3.68" fill="#111313"/><rect x="496.5" y="240.5" width="15" height="15" rx="3.68" fill="#111313"/><rect x="512.5" y="240.5" width="15" height="15" rx="3.68" fill="#111313"/><rect x="544.5" y="240.5" width="15" height="15" rx="3.68" fill="#111313"/><rect x="576.5" y="240.5" width="15" height="15" rx="3.68" fill="#111313"/><rect x="592.5" y="240.5" width="15" height="15" rx="3.68" fill="#111313"/><rect x="624.5" y="240.5" width="15" height="15" rx="3.68" fill="#111313"/><rect x="640.5" y="240.5" width="15" height="15" rx="3.68" fill="#111313"/><rect x="64.5" y="256.5" width="15" height="15" rx="3.68" fill="#111313"/><rect x="80.5" y="256.5" width="15" height="15" rx="3.68" fill="#111313"/><rect x="96.5" y="256.5" width="15" height="15" rx="3.68" fill="#111313"/><rect x="128.5" y="256.5" width="15" height="15" rx="3.68" fill="#111313"/><rect x="144.5" y="256.5" width="15" height="15" rx="3.68" fill="#111313"/><rect x="160.5" y="256.5" width="15" height="15" rx="3.68" fill="#111313"/><rect x="176.5" y="256.5" width="15" height="15" rx="3.68" fill="#111313"/><rect x="192.5" y="256.5" width="15" height="15" rx="3.68" fill="#111313"/><rect x="240.5" y="256.5" width="15" height="15" rx="3.68" fill="#111313"/><rect x="304.5" y="256.5" width="15" height="15" rx="3.68" fill="#111313"/><rect x="336.5" y="256.5" width="15" height="15" rx="3.68" fill="#111313"/><rect x="352.5" y="256.5" width="15" height="15" rx="3.68" fill="#111313"/><rect x="368.5" y="256.5" width="15" height="15" rx="3.68" fill="#111313"/><rect x="416.5" y="256.5" width="15" height="15" rx="3.68" fill="#111313"/><rect x="432.5" y="256.5" width="15" height="15" rx="3.68" fill="#111313"/><rect x="448.5" y="256.5" width="15" height="15" rx="3.68" fill="#111313"/><rect x="464.5" y="256.5" width="15" height="15" rx="3.68" fill="#111313"/><rect x="496.5" y="256.5" width="15" height="15" rx="3.68" fill="#111313"/><rect x="512.5" y="256.5" width="15" height="15" rx="3.68" fill="#111313"/><rect x="528.5" y="256.5" width="15" height="15" rx="3.68" fill="#111313"/><rect x="544.5" y="256.5" width="15" height="15" rx="3.68" fill="#111313"/><rect x="560.5" y="256.5" width="15" height="15" rx="3.68" fill="#111313"/><rect x="576.5" y="256.5" width="15" height="15" rx="3.68" fill="#111313"/><rect x="608.5" y="256.5" width="15" height="15" rx="3.68" fill="#111313"/><rect x="640.5" y="256.5" width="15" height="15" rx="3.68" fill="#111313"/><rect x="96.5" y="272.5" width="15" height="15" rx="3.68" fill="#111313"/><rect x="112.5" y="272.5" width="15" height="15" rx="3.68" fill="#111313"/><rect x="128.5" y="272.5" width="15" height="15" rx="3.68" fill="#111313"/><rect x="144.5" y="272.5" width="15" height="15" rx="3.68" fill="#111313"/><rect x="192.5" y="272.5" width="15" height="15" rx="3.68" fill="#111313"/><rect x="224.5" y="272.5" width="15" height="15" rx="3.68" fill="#111313"/><rect x="240.5" y="272.5" width="15" height="15" rx="3.68" fill="#111313"/><rect x="256.5" y="272.5" width="15" height="15" rx="3.68" fill="#111313"/><rect x="272.5" y="272.5" width="15" height="15" rx="3.68" fill="#111313"/><rect x="304.5" y="272.5" width="15" height="15" rx="3.68" fill="#111313"/><rect x="352.5" y="272.5" width="15" height="15" rx="3.68" fill="#111313"/><rect x="368.5" y="272.5" width="15" height="15" rx="3.68" fill="#111313"/><rect x="400.5" y="272.5" width="15" height="15" rx="3.68" fill="#111313"/><rect x="464.5" y="272.5" width="15" height="15" rx="3.68" fill="#111313"/><rect x="480.5" y="272.5" width="15" height="15" rx="3.68" fill="#111313"/><rect x="592.5" y="272.5" width="15" height="15" rx="3.68" fill="#111313"/><rect x="624.5" y="272.5" width="15" height="15" rx="3.68" fill="#111313"/><rect x="64.5" y="288.5" width="15" height="15" rx="3.68" fill="#111313"/><rect x="80.5" y="288.5" width="15" height="15" rx="3.68" fill="#111313"/><rect x="144.5" y="288.5" width="15" height="15" rx="3.68" fill="#111313"/><rect x="160.5" y="288.5" width="15" height="15" rx="3.68" fill="#111313"/><rect x="240.5" y="288.5" width="15" height="15" rx="3.68" fill="#111313"/><rect x="256.5" y="288.5" width="15" height="15" rx="3.68" fill="#111313"/><rect x="288.5" y="288.5" width="15" height="15" rx="3.68" fill="#111313"/><rect x="304.5" y="288.5" width="15" height="15" rx="3.68" fill="#111313"/><rect x="320.5" y="288.5" width="15" height="15" rx="3.68" fill="#111313"/><rect x="336.5" y="288.5" width="15" height="15" rx="3.68" fill="#111313"/><rect x="384.5" y="288.5" width="15" height="15" rx="3.68" fill="#111313"/><rect x="416.5" y="288.5" width="15" height="15" rx="3.68" fill="#111313"/><rect x="496.5" y="288.5" width="15" height="15" rx="3.68" fill="#111313"/><rect x="544.5" y="288.5" width="15" height="15" rx="3.68" fill="#111313"/><rect x="560.5" y="288.5" width="15" height="15" rx="3.68" fill="#111313"/><rect x="592.5" y="288.5" width="15" height="15" rx="3.68" fill="#111313"/><rect x="640.5" y="288.5" width="15" height="15" rx="3.68" fill="#111313"/><rect x="80.5" y="304.5" width="15" height="15" rx="3.68" fill="#111313"/><rect x="96.5" y="304.5" width="15" height="15" rx="3.68" fill="#111313"/><rect x="112.5" y="304.5" width="15" height="15" rx="3.68" fill="#111313"/><rect x="128.5" y="304.5" width="15" height="15" rx="3.68" fill="#111313"/><rect x="144.5" y="304.5" width="15" height="15" rx="3.68" fill="#111313"/><rect x="176.5" y="304.5" width="15" height="15" rx="3.68" fill="#111313"/><rect x="208.5" y="304.5" width="15" height="15" rx="3.68" fill="#111313"/><rect x="256.5" y="304.5" width="15" height="15" rx="3.68" fill="#111313"/><rect x="288.5" y="304.5" width="15" height="15" rx="3.68" fill="#111313"/><rect x="304.5" y="304.5" width="15" height="15" rx="3.68" fill="#111313"/><rect x="320.5" y="304.5" width="15" height="15" rx="3.68" fill="#111313"/><rect x="352.5" y="304.5" width="15" height="15" rx="3.68" fill="#111313"/><rect x="368.5" y="304.5" width="15" height="15" rx="3.68" fill="#111313"/><rect x="384.5" y="304.5" width="15" height="15" rx="3.68" fill="#111313"/><rect x="448.5" y="304.5" width="15" height="15" rx="3.68" fill="#111313"/><rect x="480.5" y="304.5" width="15" height="15" rx="3.68" fill="#111313"/><rect x="512.5" y="304.5" width="15" height="15" rx="3.68" fill="#111313"/><rect x="544.5" y="304.5" width="15" height="15" rx="3.68" fill="#111313"/><rect x="576.5" y="304.5" width="15" height="15" rx="3.68" fill="#111313"/><rect x="624.5" y="304.5" width="15" height="15" rx="3.68" fill="#111313"/><rect x="640.5" y="304.5" width="15" height="15" rx="3.68" fill="#111313"/><rect x="64.5" y="320.5" width="15" height="15" rx="3.68" fill="#111313"/><rect x="96.5" y="320.5" width="15" height="15" rx="3.68" fill="#111313"/><rect x="112.5" y="320.5" width="15" height="15" rx="3.68" fill="#111313"/><rect x="144.5" y="320.5" width="15" height="15" rx="3.68" fill="#111313"/><rect x="160.5" y="320.5" width="15" height="15" rx="3.68" fill="#111313"/><rect x="176.5" y="320.5" width="15" height="15" rx="3.68" fill="#111313"/><rect x="256.5" y="320.5" width="15" height="15" rx="3.68" fill="#111313"/><rect x="272.5" y="320.5" width="15" height="15" rx="3.68" fill="#111313"/><rect x="304.5" y="320.5" width="15" height="15" rx="3.68" fill="#111313"/><rect x="320.5" y="320.5" width="15" height="15" rx="3.68" fill="#111313"/><rect x="336.5" y="320.5" width="15" height="15" rx="3.68" fill="#111313"/><rect x="352.5" y="320.5" width="15" height="15" rx="3.68" fill="#111313"/><rect x="384.5" y="320.5" width="15" height="15" rx="3.68" fill="#111313"/><rect x="432.5" y="320.5" width="15" height="15" rx="3.68" fill="#111313"/><rect x="448.5" y="320.5" width="15" height="15" rx="3.68" fill="#111313"/><rect x="464.5" y="320.5" width="15" height="15" rx="3.68" fill="#111313"/><rect x="480.5" y="320.5" width="15" height="15" rx="3.68" fill="#111313"/><rect x="496.5" y="320.5" width="15" height="15" rx="3.68" fill="#111313"/><rect x="512.5" y="320.5" width="15" height="15" rx="3.68" fill="#111313"/><rect x="528.5" y="320.5" width="15" height="15" rx="3.68" fill="#111313"/><rect x="544.5" y="320.5" width="15" height="15" rx="3.68" fill="#111313"/><rect x="560.5" y="320.5" width="15" height="15" rx="3.68" fill="#111313"/><rect x="576.5" y="320.5" width="15" height="15" rx="3.68" fill="#111313"/><rect x="608.5" y="320.5" width="15" height="15" rx="3.68" fill="#111313"/><rect x="624.5" y="320.5" width="15" height="15" rx="3.68" fill="#111313"/><rect x="640.5" y="320.5" width="15" height="15" rx="3.68" fill="#111313"/><rect x="64.5" y="336.5" width="15" height="15" rx="3.68" fill="#111313"/><rect x="96.5" y="336.5" width="15" height="15" rx="3.68" fill="#111313"/><rect x="112.5" y="336.5" width="15" height="15" rx="3.68" fill="#111313"/><rect x="144.5" y="336.5" width="15" height="15" rx="3.68" fill="#111313"/><rect x="224.5" y="336.5" width="15" height="15" rx="3.68" fill="#111313"/><rect x="240.5" y="336.5" width="15" height="15" rx="3.68" fill="#111313"/><rect x="416.5" y="336.5" width="15" height="15" rx="3.68" fill="#111313"/><rect x="624.5" y="336.5" width="15" height="15" rx="3.68" fill="#111313"/><rect x="64.5" y="352.5" width="15" height="15" rx="3.68" fill="#111313"/><rect x="80.5" y="352.5" width="15" height="15" rx="3.68" fill="#111313"/><rect x="96.5" y="352.5" width="15" height="15" rx="3.68" fill="#111313"/><rect x="128.5" y="352.5" width="15" height="15" rx="3.68" fill="#111313"/><rect x="160.5" y="352.5" width="15" height="15" rx="3.68" fill="#111313"/><rect x="176.5" y="352.5" width="15" height="15" rx="3.68" fill="#111313"/><rect x="192.5" y="352.5" width="15" height="15" rx="3.68" fill="#111313"/><rect x="256.5" y="352.5" width="15" height="15" rx="3.68" fill="#111313"/><rect x="304.5" y="352.5" width="15" height="15" rx="3.68" fill="#111313"/><rect x="320.5" y="352.5" width="15" height="15" rx="3.68" fill="#111313"/><rect x="336.5" y="352.5" width="15" height="15" rx="3.68" fill="#111313"/><rect x="400.5" y="352.5" width="15" height="15" rx="3.68" fill="#111313"/><rect x="432.5" y="352.5" width="15" height="15" rx="3.68" fill="#111313"/><rect x="448.5" y="352.5" width="15" height="15" rx="3.68" fill="#111313"/><rect x="480.5" y="352.5" width="15" height="15" rx="3.68" fill="#111313"/><rect x="496.5" y="352.5" width="15" height="15" rx="3.68" fill="#111313"/><rect x="512.5" y="352.5" width="15" height="15" rx="3.68" fill="#111313"/><rect x="576.5" y="352.5" width="15" height="15" rx="3.68" fill="#111313"/><rect x="592.5" y="352.5" width="15" height="15" rx="3.68" fill="#111313"/><rect x="640.5" y="352.5" width="15" height="15" rx="3.68" fill="#111313"/><rect x="96.5" y="368.5" width="15" height="15" rx="3.68" fill="#111313"/><rect x="128.5" y="368.5" width="15" height="15" rx="3.68" fill="#111313"/><rect x="176.5" y="368.5" width="15" height="15" rx="3.68" fill="#111313"/><rect x="208.5" y="368.5" width="15" height="15" rx="3.68" fill="#111313"/><rect x="224.5" y="368.5" width="15" height="15" rx="3.68" fill="#111313"/><rect x="304.5" y="368.5" width="15" height="15" rx="3.68" fill="#111313"/><rect x="320.5" y="368.5" width="15" height="15" rx="3.68" fill="#111313"/><rect x="368.5" y="368.5" width="15" height="15" rx="3.68" fill="#111313"/><rect x="384.5" y="368.5" width="15" height="15" rx="3.68" fill="#111313"/><rect x="400.5" y="368.5" width="15" height="15" rx="3.68" fill="#111313"/><rect x="496.5" y="368.5" width="15" height="15" rx="3.68" fill="#111313"/><rect x="512.5" y="368.5" width="15" height="15" rx="3.68" fill="#111313"/><rect x="528.5" y="368.5" width="15" height="15" rx="3.68" fill="#111313"/><rect x="544.5" y="368.5" width="15" height="15" rx="3.68" fill="#111313"/><rect x="64.5" y="384.5" width="15" height="15" rx="3.68" fill="#111313"/><rect x="112.5" y="384.5" width="15" height="15" rx="3.68" fill="#111313"/><rect x="160.5" y="384.5" width="15" height="15" rx="3.68" fill="#111313"/><rect x="176.5" y="384.5" width="15" height="15" rx="3.68" fill="#111313"/><rect x="224.5" y="384.5" width="15" height="15" rx="3.68" fill="#111313"/><rect x="272.5" y="384.5" width="15" height="15" rx="3.68" fill="#111313"/><rect x="288.5" y="384.5" width="15" height="15" rx="3.68" fill="#111313"/><rect x="320.5" y="384.5" width="15" height="15" rx="3.68" fill="#111313"/><rect x="384.5" y="384.5" width="15" height="15" rx="3.68" fill="#111313"/><rect x="400.5" y="384.5" width="15" height="15" rx="3.68" fill="#111313"/><rect x="416.5" y="384.5" width="15" height="15" rx="3.68" fill="#111313"/><rect x="464.5" y="384.5" width="15" height="15" rx="3.68" fill="#111313"/><rect x="496.5" y="384.5" width="15" height="15" rx="3.68" fill="#111313"/><rect x="512.5" y="384.5" width="15" height="15" rx="3.68" fill="#111313"/><rect x="528.5" y="384.5" width="15" height="15" rx="3.68" fill="#111313"/><rect x="544.5" y="384.5" width="15" height="15" rx="3.68" fill="#111313"/><rect x="576.5" y="384.5" width="15" height="15" rx="3.68" fill="#111313"/><rect x="592.5" y="384.5" width="15" height="15" rx="3.68" fill="#111313"/><rect x="64.5" y="400.5" width="15" height="15" rx="3.68" fill="#111313"/><rect x="96.5" y="400.5" width="15" height="15" rx="3.68" fill="#111313"/><rect x="128.5" y="400.5" width="15" height="15" rx="3.68" fill="#111313"/><rect x="176.5" y="400.5" width="15" height="15" rx="3.68" fill="#111313"/><rect x="208.5" y="400.5" width="15" height="15" rx="3.68" fill="#111313"/><rect x="240.5" y="400.5" width="15" height="15" rx="3.68" fill="#111313"/><rect x="256.5" y="400.5" width="15" height="15" rx="3.68" fill="#111313"/><rect x="272.5" y="400.5" width="15" height="15" rx="3.68" fill="#111313"/><rect x="304.5" y="400.5" width="15" height="15" rx="3.68" fill="#111313"/><rect x="320.5" y="400.5" width="15" height="15" rx="3.68" fill="#111313"/><rect x="336.5" y="400.5" width="15" height="15" rx="3.68" fill="#111313"/><rect x="368.5" y="400.5" width="15" height="15" rx="3.68" fill="#111313"/><rect x="384.5" y="400.5" width="15" height="15" rx="3.68" fill="#111313"/><rect x="400.5" y="400.5" width="15" height="15" rx="3.68" fill="#111313"/><rect x="448.5" y="400.5" width="15" height="15" rx="3.68" fill="#111313"/><rect x="480.5" y="400.5" width="15" height="15" rx="3.68" fill="#111313"/><rect x="544.5" y="400.5" width="15" height="15" rx="3.68" fill="#111313"/><rect x="560.5" y="400.5" width="15" height="15" rx="3.68" fill="#111313"/><rect x="640.5" y="400.5" width="15" height="15" rx="3.68" fill="#111313"/><rect x="64.5" y="416.5" width="15" height="15" rx="3.68" fill="#111313"/><rect x="96.5" y="416.5" width="15" height="15" rx="3.68" fill="#111313"/><rect x="144.5" y="416.5" width="15" height="15" rx="3.68" fill="#111313"/><rect x="160.5" y="416.5" width="15" height="15" rx="3.68" fill="#111313"/><rect x="176.5" y="416.5" width="15" height="15" rx="3.68" fill="#111313"/><rect x="224.5" y="416.5" width="15" height="15" rx="3.68" fill="#111313"/><rect x="272.5" y="416.5" width="15" height="15" rx="3.68" fill="#111313"/><rect x="320.5" y="416.5" width="15" height="15" rx="3.68" fill="#111313"/><rect x="336.5" y="416.5" width="15" height="15" rx="3.68" fill="#111313"/><rect x="352.5" y="416.5" width="15" height="15" rx="3.68" fill="#111313"/><rect x="368.5" y="416.5" width="15" height="15" rx="3.68" fill="#111313"/><rect x="384.5" y="416.5" width="15" height="15" rx="3.68" fill="#111313"/><rect x="400.5" y="416.5" width="15" height="15" rx="3.68" fill="#111313"/><rect x="448.5" y="416.5" width="15" height="15" rx="3.68" fill="#111313"/><rect x="496.5" y="416.5" width="15" height="15" rx="3.68" fill="#111313"/><rect x="544.5" y="416.5" width="15" height="15" rx="3.68" fill="#111313"/><rect x="592.5" y="416.5" width="15" height="15" rx="3.68" fill="#111313"/><rect x="608.5" y="416.5" width="15" height="15" rx="3.68" fill="#111313"/><rect x="624.5" y="416.5" width="15" height="15" rx="3.68" fill="#111313"/><rect x="640.5" y="416.5" width="15" height="15" rx="3.68" fill="#111313"/><rect x="128.5" y="432.5" width="15" height="15" rx="3.68" fill="#111313"/><rect x="144.5" y="432.5" width="15" height="15" rx="3.68" fill="#111313"/><rect x="192.5" y="432.5" width="15" height="15" rx="3.68" fill="#111313"/><rect x="224.5" y="432.5" width="15" height="15" rx="3.68" fill="#111313"/><rect x="240.5" y="432.5" width="15" height="15" rx="3.68" fill="#111313"/><rect x="256.5" y="432.5" width="15" height="15" rx="3.68" fill="#111313"/><rect x="304.5" y="432.5" width="15" height="15" rx="3.68" fill="#111313"/><rect x="320.5" y="432.5" width="15" height="15" rx="3.68" fill="#111313"/><rect x="352.5" y="432.5" width="15" height="15" rx="3.68" fill="#111313"/><rect x="384.5" y="432.5" width="15" height="15" rx="3.68" fill="#111313"/><rect x="432.5" y="432.5" width="15" height="15" rx="3.68" fill="#111313"/><rect x="448.5" y="432.5" width="15" height="15" rx="3.68" fill="#111313"/><rect x="480.5" y="432.5" width="15" height="15" rx="3.68" fill="#111313"/><rect x="544.5" y="432.5" width="15" height="15" rx="3.68" fill="#111313"/><rect x="96.5" y="448.5" width="15" height="15" rx="3.68" fill="#111313"/><rect x="112.5" y="448.5" width="15" height="15" rx="3.68" fill="#111313"/><rect x="160.5" y="448.5" width="15" height="15" rx="3.68" fill="#111313"/><rect x="176.5" y="448.5" width="15" height="15" rx="3.68" fill="#111313"/><rect x="240.5" y="448.5" width="15" height="15" rx="3.68" fill="#111313"/><rect x="256.5" y="448.5" width="15" height="15" rx="3.68" fill="#111313"/><rect x="304.5" y="448.5" width="15" height="15" rx="3.68" fill="#111313"/><rect x="336.5" y="448.5" width="15" height="15" rx="3.68" fill="#111313"/><rect x="368.5" y="448.5" width="15" height="15" rx="3.68" fill="#111313"/><rect x="384.5" y="448.5" width="15" height="15" rx="3.68" fill="#111313"/><rect x="416.5" y="448.5" width="15" height="15" rx="3.68" fill="#111313"/><rect x="496.5" y="448.5" width="15" height="15" rx="3.68" fill="#111313"/><rect x="544.5" y="448.5" width="15" height="15" rx="3.68" fill="#111313"/><rect x="560.5" y="448.5" width="15" height="15" rx="3.68" fill="#111313"/><rect x="576.5" y="448.5" width="15" height="15" rx="3.68" fill="#111313"/><rect x="592.5" y="448.5" width="15" height="15" rx="3.68" fill="#111313"/><rect x="624.5" y="448.5" width="15" height="15" rx="3.68" fill="#111313"/><rect x="640.5" y="448.5" width="15" height="15" rx="3.68" fill="#111313"/><rect x="64.5" y="464.5" width="15" height="15" rx="3.68" fill="#111313"/><rect x="112.5" y="464.5" width="15" height="15" rx="3.68" fill="#111313"/><rect x="176.5" y="464.5" width="15" height="15" rx="3.68" fill="#111313"/><rect x="208.5" y="464.5" width="15" height="15" rx="3.68" fill="#111313"/><rect x="256.5" y="464.5" width="15" height="15" rx="3.68" fill="#111313"/><rect x="272.5" y="464.5" width="15" height="15" rx="3.68" fill="#111313"/><rect x="288.5" y="464.5" width="15" height="15" rx="3.68" fill="#111313"/><rect x="304.5" y="464.5" width="15" height="15" rx="3.68" fill="#111313"/><rect x="320.5" y="464.5" width="15" height="15" rx="3.68" fill="#111313"/><rect x="336.5" y="464.5" width="15" height="15" rx="3.68" fill="#111313"/><rect x="352.5" y="464.5" width="15" height="15" rx="3.68" fill="#111313"/><rect x="448.5" y="464.5" width="15" height="15" rx="3.68" fill="#111313"/><rect x="464.5" y="464.5" width="15" height="15" rx="3.68" fill="#111313"/><rect x="512.5" y="464.5" width="15" height="15" rx="3.68" fill="#111313"/><rect x="528.5" y="464.5" width="15" height="15" rx="3.68" fill="#111313"/><rect x="592.5" y="464.5" width="15" height="15" rx="3.68" fill="#111313"/><rect x="608.5" y="464.5" width="15" height="15" rx="3.68" fill="#111313"/><rect x="624.5" y="464.5" width="15" height="15" rx="3.68" fill="#111313"/><rect x="64.5" y="480.5" width="15" height="15" rx="3.68" fill="#111313"/><rect x="96.5" y="480.5" width="15" height="15" rx="3.68" fill="#111313"/><rect x="112.5" y="480.5" width="15" height="15" rx="3.68" fill="#111313"/><rect x="128.5" y="480.5" width="15" height="15" rx="3.68" fill="#111313"/><rect x="160.5" y="480.5" width="15" height="15" rx="3.68" fill="#111313"/><rect x="176.5" y="480.5" width="15" height="15" rx="3.68" fill="#111313"/><rect x="192.5" y="480.5" width="15" height="15" rx="3.68" fill="#111313"/><rect x="224.5" y="480.5" width="15" height="15" rx="3.68" fill="#111313"/><rect x="240.5" y="480.5" width="15" height="15" rx="3.68" fill="#111313"/><rect x="272.5" y="480.5" width="15" height="15" rx="3.68" fill="#111313"/><rect x="288.5" y="480.5" width="15" height="15" rx="3.68" fill="#111313"/><rect x="304.5" y="480.5" width="15" height="15" rx="3.68" fill="#111313"/><rect x="384.5" y="480.5" width="15" height="15" rx="3.68" fill="#111313"/><rect x="416.5" y="480.5" width="15" height="15" rx="3.68" fill="#111313"/><rect x="496.5" y="480.5" width="15" height="15" rx="3.68" fill="#111313"/><rect x="512.5" y="480.5" width="15" height="15" rx="3.68" fill="#111313"/><rect x="528.5" y="480.5" width="15" height="15" rx="3.68" fill="#111313"/><rect x="544.5" y="480.5" width="15" height="15" rx="3.68" fill="#111313"/><rect x="592.5" y="480.5" width="15" height="15" rx="3.68" fill="#111313"/><rect x="640.5" y="480.5" width="15" height="15" rx="3.68" fill="#111313"/><rect x="64.5" y="496.5" width="15" height="15" rx="3.68" fill="#111313"/><rect x="112.5" y="496.5" width="15" height="15" rx="3.68" fill="#111313"/><rect x="144.5" y="496.5" width="15" height="15" rx="3.68" fill="#111313"/><rect x="192.5" y="496.5" width="15" height="15" rx="3.68" fill="#111313"/><rect x="272.5" y="496.5" width="15" height="15" rx="3.68" fill="#111313"/><rect x="288.5" y="496.5" width="15" height="15" rx="3.68" fill="#111313"/><rect x="336.5" y="496.5" width="15" height="15" rx="3.68" fill="#111313"/><rect x="368.5" y="496.5" width="15" height="15" rx="3.68" fill="#111313"/><rect x="384.5" y="496.5" width="15" height="15" rx="3.68" fill="#111313"/><rect x="400.5" y="496.5" width="15" height="15" rx="3.68" fill="#111313"/><rect x="448.5" y="496.5" width="15" height="15" rx="3.68" fill="#111313"/><rect x="496.5" y="496.5" width="15" height="15" rx="3.68" fill="#111313"/><rect x="592.5" y="496.5" width="15" height="15" rx="3.68" fill="#111313"/><rect x="624.5" y="496.5" width="15" height="15" rx="3.68" fill="#111313"/><rect x="64.5" y="512.5" width="15" height="15" rx="3.68" fill="#111313"/><rect x="96.5" y="512.5" width="15" height="15" rx="3.68" fill="#111313"/><rect x="160.5" y="512.5" width="15" height="15" rx="3.68" fill="#111313"/><rect x="176.5" y="512.5" width="15" height="15" rx="3.68" fill="#111313"/><rect x="192.5" y="512.5" width="15" height="15" rx="3.68" fill="#111313"/><rect x="208.5" y="512.5" width="15" height="15" rx="3.68" fill="#111313"/><rect x="256.5" y="512.5" width="15" height="15" rx="3.68" fill="#111313"/><rect x="384.5" y="512.5" width="15" height="15" rx="3.68" fill="#111313"/><rect x="448.5" y="512.5" width="15" height="15" rx="3.68" fill="#111313"/><rect x="464.5" y="512.5" width="15" height="15" rx="3.68" fill="#111313"/><rect x="512.5" y="512.5" width="15" height="15" rx="3.68" fill="#111313"/><rect x="528.5" y="512.5" width="15" height="15" rx="3.68" fill="#111313"/><rect x="544.5" y="512.5" width="15" height="15" rx="3.68" fill="#111313"/><rect x="560.5" y="512.5" width="15" height="15" rx="3.68" fill="#111313"/><rect x="576.5" y="512.5" width="15" height="15" rx="3.68" fill="#111313"/><rect x="608.5" y="512.5" width="15" height="15" rx="3.68" fill="#111313"/><rect x="640.5" y="512.5" width="15" height="15" rx="3.68" fill="#111313"/><rect x="192.5" y="528.5" width="15" height="15" rx="3.68" fill="#111313"/><rect x="208.5" y="528.5" width="15" height="15" rx="3.68" fill="#111313"/><rect x="224.5" y="528.5" width="15" height="15" rx="3.68" fill="#111313"/><rect x="288.5" y="528.5" width="15" height="15" rx="3.68" fill="#111313"/><rect x="304.5" y="528.5" width="15" height="15" rx="3.68" fill="#111313"/><rect x="320.5" y="528.5" width="15" height="15" rx="3.68" fill="#111313"/><rect x="384.5" y="528.5" width="15" height="15" rx="3.68" fill="#111313"/><rect x="400.5" y="528.5" width="15" height="15" rx="3.68" fill="#111313"/><rect x="416.5" y="528.5" width="15" height="15" rx="3.68" fill="#111313"/><rect x="432.5" y="528.5" width="15" height="15" rx="3.68" fill="#111313"/><rect x="480.5" y="528.5" width="15" height="15" rx="3.68" fill="#111313"/><rect x="496.5" y="528.5" width="15" height="15" rx="3.68" fill="#111313"/><rect x="512.5" y="528.5" width="15" height="15" rx="3.68" fill="#111313"/><rect x="576.5" y="528.5" width="15" height="15" rx="3.68" fill="#111313"/><rect x="592.5" y="528.5" width="15" height="15" rx="3.68" fill="#111313"/><rect x="608.5" y="528.5" width="15" height="15" rx="3.68" fill="#111313"/><rect x="624.5" y="528.5" width="15" height="15" rx="3.68" fill="#111313"/><rect x="208.5" y="544.5" width="15" height="15" rx="3.68" fill="#111313"/><rect x="224.5" y="544.5" width="15" height="15" rx="3.68" fill="#111313"/><rect x="240.5" y="544.5" width="15" height="15" rx="3.68" fill="#111313"/><rect x="320.5" y="544.5" width="15" height="15" rx="3.68" fill="#111313"/><rect x="384.5" y="544.5" width="15" height="15" rx="3.68" fill="#111313"/><rect x="416.5" y="544.5" width="15" height="15" rx="3.68" fill="#111313"/><rect x="448.5" y="544.5" width="15" height="15" rx="3.68" fill="#111313"/><rect x="464.5" y="544.5" width="15" height="15" rx="3.68" fill="#111313"/><rect x="480.5" y="544.5" width="15" height="15" rx="3.68" fill="#111313"/><rect x="512.5" y="544.5" width="15" height="15" rx="3.68" fill="#111313"/><rect x="544.5" y="544.5" width="15" height="15" rx="3.68" fill="#111313"/><rect x="576.5" y="544.5" width="15" height="15" rx="3.68" fill="#111313"/><rect x="592.5" y="544.5" width="15" height="15" rx="3.68" fill="#111313"/><rect x="640.5" y="544.5" width="15" height="15" rx="3.68" fill="#111313"/><rect x="208.5" y="560.5" width="15" height="15" rx="3.68" fill="#111313"/><rect x="240.5" y="560.5" width="15" height="15" rx="3.68" fill="#111313"/><rect x="256.5" y="560.5" width="15" height="15" rx="3.68" fill="#111313"/><rect x="320.5" y="560.5" width="15" height="15" rx="3.68" fill="#111313"/><rect x="336.5" y="560.5" width="15" height="15" rx="3.68" fill="#111313"/><rect x="352.5" y="560.5" width="15" height="15" rx="3.68" fill="#111313"/><rect x="368.5" y="560.5" width="15" height="15" rx="3.68" fill="#111313"/><rect x="512.5" y="560.5" width="15" height="15" rx="3.68" fill="#111313"/><rect x="576.5" y="560.5" width="15" height="15" rx="3.68" fill="#111313"/><rect x="592.5" y="560.5" width="15" height="15" rx="3.68" fill="#111313"/><rect x="624.5" y="560.5" width="15" height="15" rx="3.68" fill="#111313"/><rect x="640.5" y="560.5" width="15" height="15" rx="3.68" fill="#111313"/><rect x="192.5" y="576.5" width="15" height="15" rx="3.68" fill="#111313"/><rect x="208.5" y="576.5" width="15" height="15" rx="3.68" fill="#111313"/><rect x="240.5" y="576.5" width="15" height="15" rx="3.68" fill="#111313"/><rect x="272.5" y="576.5" width="15" height="15" rx="3.68" fill="#111313"/><rect x="288.5" y="576.5" width="15" height="15" rx="3.68" fill="#111313"/><rect x="320.5" y="576.5" width="15" height="15" rx="3.68" fill="#111313"/><rect x="368.5" y="576.5" width="15" height="15" rx="3.68" fill="#111313"/><rect x="416.5" y="576.5" width="15" height="15" rx="3.68" fill="#111313"/><rect x="448.5" y="576.5" width="15" height="15" rx="3.68" fill="#111313"/><rect x="480.5" y="576.5" width="15" height="15" rx="3.68" fill="#111313"/><rect x="496.5" y="576.5" width="15" height="15" rx="3.68" fill="#111313"/><rect x="512.5" y="576.5" width="15" height="15" rx="3.68" fill="#111313"/><rect x="528.5" y="576.5" width="15" height="15" rx="3.68" fill="#111313"/><rect x="544.5" y="576.5" width="15" height="15" rx="3.68" fill="#111313"/><rect x="560.5" y="576.5" width="15" height="15" rx="3.68" fill="#111313"/><rect x="576.5" y="576.5" width="15" height="15" rx="3.68" fill="#111313"/><rect x="608.5" y="576.5" width="15" height="15" rx="3.68" fill="#111313"/><rect x="192.5" y="592.5" width="15" height="15" rx="3.68" fill="#111313"/><rect x="240.5" y="592.5" width="15" height="15" rx="3.68" fill="#111313"/><rect x="256.5" y="592.5" width="15" height="15" rx="3.68" fill="#111313"/><rect x="384.5" y="592.5" width="15" height="15" rx="3.68" fill="#111313"/><rect x="528.5" y="592.5" width="15" height="15" rx="3.68" fill="#111313"/><rect x="544.5" y="592.5" width="15" height="15" rx="3.68" fill="#111313"/><rect x="560.5" y="592.5" width="15" height="15" rx="3.68" fill="#111313"/><rect x="576.5" y="592.5" width="15" height="15" rx="3.68" fill="#111313"/><rect x="192.5" y="608.5" width="15" height="15" rx="3.68" fill="#111313"/><rect x="208.5" y="608.5" width="15" height="15" rx="3.68" fill="#111313"/><rect x="272.5" y="608.5" width="15" height="15" rx="3.68" fill="#111313"/><rect x="304.5" y="608.5" width="15" height="15" rx="3.68" fill="#111313"/><rect x="320.5" y="608.5" width="15" height="15" rx="3.68" fill="#111313"/><rect x="352.5" y="608.5" width="15" height="15" rx="3.68" fill="#111313"/><rect x="368.5" y="608.5" width="15" height="15" rx="3.68" fill="#111313"/><rect x="384.5" y="608.5" width="15" height="15" rx="3.68" fill="#111313"/><rect x="400.5" y="608.5" width="15" height="15" rx="3.68" fill="#111313"/><rect x="432.5" y="608.5" width="15" height="15" rx="3.68" fill="#111313"/><rect x="448.5" y="608.5" width="15" height="15" rx="3.68" fill="#111313"/><rect x="464.5" y="608.5" width="15" height="15" rx="3.68" fill="#111313"/><rect x="544.5" y="608.5" width="15" height="15" rx="3.68" fill="#111313"/><rect x="640.5" y="608.5" width="15" height="15" rx="3.68" fill="#111313"/><rect x="208.5" y="624.5" width="15" height="15" rx="3.68" fill="#111313"/><rect x="240.5" y="624.5" width="15" height="15" rx="3.68" fill="#111313"/><rect x="256.5" y="624.5" width="15" height="15" rx="3.68" fill="#111313"/><rect x="272.5" y="624.5" width="15" height="15" rx="3.68" fill="#111313"/><rect x="320.5" y="624.5" width="15" height="15" rx="3.68" fill="#111313"/><rect x="336.5" y="624.5" width="15" height="15" rx="3.68" fill="#111313"/><rect x="352.5" y="624.5" width="15" height="15" rx="3.68" fill="#111313"/><rect x="384.5" y="624.5" width="15" height="15" rx="3.68" fill="#111313"/><rect x="400.5" y="624.5" width="15" height="15" rx="3.68" fill="#111313"/><rect x="416.5" y="624.5" width="15" height="15" rx="3.68" fill="#111313"/><rect x="432.5" y="624.5" width="15" height="15" rx="3.68" fill="#111313"/><rect x="480.5" y="624.5" width="15" height="15" rx="3.68" fill="#111313"/><rect x="512.5" y="624.5" width="15" height="15" rx="3.68" fill="#111313"/><rect x="544.5" y="624.5" width="15" height="15" rx="3.68" fill="#111313"/><rect x="576.5" y="624.5" width="15" height="15" rx="3.68" fill="#111313"/><rect x="640.5" y="624.5" width="15" height="15" rx="3.68" fill="#111313"/><rect x="208.5" y="640.5" width="15" height="15" rx="3.68" fill="#111313"/><rect x="272.5" y="640.5" width="15" height="15" rx="3.68" fill="#111313"/><rect x="288.5" y="640.5" width="15" height="15" rx="3.68" fill="#111313"/><rect x="320.5" y="640.5" width="15" height="15" rx="3.68" fill="#111313"/><rect x="384.5" y="640.5" width="15" height="15" rx="3.68" fill="#111313"/><rect x="400.5" y="640.5" width="15" height="15" rx="3.68" fill="#111313"/><rect x="416.5" y="640.5" width="15" height="15" rx="3.68" fill="#111313"/><rect x="432.5" y="640.5" width="15" height="15" rx="3.68" fill="#111313"/><rect x="464.5" y="640.5" width="15" height="15" rx="3.68" fill="#111313"/><rect x="496.5" y="640.5" width="15" height="15" rx="3.68" fill="#111313"/><rect x="560.5" y="640.5" width="15" height="15" rx="3.68" fill="#111313"/><rect x="592.5" y="640.5" width="15" height="15" rx="3.68" fill="#111313"/><rect x="608.5" y="640.5" width="15" height="15" rx="3.68" fill="#111313"/><rect x="624.5" y="640.5" width="15" height="15" rx="3.68" fill="#111313"/><rect x="640.5" y="640.5" width="15" height="15" rx="3.68" fill="#111313"/><rect x="64" y="64" width="112" height="112" rx="12" fill="#111313"/><rect x="80" y="80" width="80" height="80" rx="8.8" fill="#e7e5da"/><rect x="96" y="96" width="48" height="48" rx="6.4" fill="#111313"/><rect x="544" y="64" width="112" height="112" rx="12" fill="#111313"/><rect x="560" y="80" width="80" height="80" rx="8.8" fill="#e7e5da"/><rect x="576" y="96" width="48" height="48" rx="6.4" fill="#111313"/><rect x="64" y="544" width="112" height="112" rx="12" fill="#111313"/><rect x="80" y="560" width="80" height="80" rx="8.8" fill="#e7e5da"/><rect x="96" y="576" width="48" height="48" rx="6.4" fill="#111313"/><circle cx="360" cy="360" r="35.2" fill="#e7e5da" stroke="#111313" stroke-width="2"/><path d="M339 350h12v1h-12z" fill="#111313"/><path d="M353 350h14v1h-14z" fill="#111313"/><path d="M368 350h2v1h-2z" fill="#111313"/><path d="M379 350h2v1h-2z" fill="#111313"/><path d="M339 351h11v1h-11z" fill="#111313"/><path d="M353 351h14v1h-14z" fill="#111313"/><path d="M368 351h2v1h-2z" fill="#111313"/><path d="M379 351h2v1h-2z" fill="#111313"/><path d="M339 352h2v1h-2z" fill="#111313"/><path d="M359 352h2v1h-2z" fill="#111313"/><path d="M368 352h2v1h-2z" fill="#111313"/><path d="M379 352h2v1h-2z" fill="#111313"/><path d="M339 353h2v1h-2z" fill="#111313"/><path d="M359 353h2v1h-2z" fill="#111313"/><path d="M368 353h2v1h-2z" fill="#111313"/><path d="M379 353h2v1h-2z" fill="#111313"/><path d="M339 354h2v1h-2z" fill="#111313"/><path d="M359 354h2v1h-2z" fill="#111313"/><path d="M368 354h2v1h-2z" fill="#111313"/><path d="M379 354h2v1h-2z" fill="#111313"/><path d="M339 355h2v1h-2z" fill="#111313"/><path d="M359 355h2v1h-2z" fill="#111313"/><path d="M368 355h2v1h-2z" fill="#111313"/><path d="M379 355h2v1h-2z" fill="#111313"/><path d="M339 356h2v1h-2z" fill="#111313"/><path d="M359 356h2v1h-2z" fill="#111313"/><path d="M368 356h2v1h-2z" fill="#111313"/><path d="M379 356h2v1h-2z" fill="#111313"/><path d="M339 357h2v1h-2z" fill="#111313"/><path d="M359 357h2v1h-2z" fill="#111313"/><path d="M368 357h2v1h-2z" fill="#111313"/><path d="M379 357h2v1h-2z" fill="#111313"/><path d="M339 358h11v1h-11z" fill="#111313"/><path d="M359 358h2v1h-2z" fill="#111313"/><path d="M368 358h13v1h-13z" fill="#111313"/><path d="M339 359h10v1h-10z" fill="#111313"/><path d="M359 359h2v1h-2z" fill="#111313"/><path d="M368 359h13v1h-13z" fill="#111313"/><path d="M339 360h2v1h-2z" fill="#111313"/><path d="M359 360h2v1h-2z" fill="#111313"/><path d="M368 360h2v1h-2z" fill="#111313"/><path d="M379 360h2v1h-2z" fill="#111313"/><path d="M339 361h2v1h-2z" fill="#111313"/><path d="M359 361h2v1h-2z" fill="#111313"/><path d="M368 361h2v1h-2z" fill="#111313"/><path d="M379 361h2v1h-2z" fill="#111313"/><path d="M339 362h2v1h-2z" fill="#111313"/><path d="M359 362h2v1h-2z" fill="#111313"/><path d="M368 362h2v1h-2z" fill="#111313"/><path d="M379 362h2v1h-2z" fill="#111313"/><path d="M339 363h2v1h-2z" fill="#111313"/><path d="M359 363h2v1h-2z" fill="#111313"/><path d="M368 363h2v1h-2z" fill="#111313"/><path d="M379 363h2v1h-2z" fill="#111313"/><path d="M339 364h2v1h-2z" fill="#111313"/><path d="M359 364h2v1h-2z" fill="#111313"/><path d="M368 364h2v1h-2z" fill="#111313"/><path d="M379 364h2v1h-2z" fill="#111313"/><path d="M339 365h2v1h-2z" fill="#111313"/><path d="M359 365h2v1h-2z" fill="#111313"/><path d="M368 365h2v1h-2z" fill="#111313"/><path d="M379 365h2v1h-2z" fill="#111313"/><path d="M339 366h11v1h-11z" fill="#111313"/><path d="M359 366h2v1h-2z" fill="#111313"/><path d="M368 366h2v1h-2z" fill="#111313"/><path d="M379 366h2v1h-2z" fill="#111313"/><path d="M339 367h12v1h-12z" fill="#111313"/><path d="M359 367h2v1h-2z" fill="#111313"/><path d="M368 367h2v1h-2z" fill="#111313"/><path d="M379 367h2v1h-2z" fill="#111313"/></svg>